<svg width="170" height="185" viewBox="0 0 170 185" fill="none" xmlns="http://www.w3.org/2000/svg">
<path d="M89.324 9.13879H80.391V26.9981H89.324V9.13879Z" fill="#8DCE00"/>
<path d="M98.2569 26.998H89.324V80.5779H98.2569V26.998Z" fill="#8DCE00"/>
<path d="M80.391 26.998H71.46V80.5779H80.391V26.998Z" fill="#8DCE00"/>
<path d="M89.324 35.9286H80.391V80.5778H89.324V35.9286Z" fill="#8DCE00"/>
<path d="M107.188 80.5778H62.527V98.4372H107.188V80.5778Z" fill="#8DCE00"/>
<path d="M160.782 107.368H133.985V116.298H160.782V107.368Z" fill="#8DCE00"/>
<path d="M116.121 98.4372H53.5941V116.298H116.121V98.4372Z" fill="#8DCE00"/>
<path d="M116.121 116.298H53.5941V125.227H116.121V116.298Z" fill="#8DCE00"/>
<path d="M98.2569 116.298H71.46V125.227H98.2569V116.298Z" fill="white"/>
<path d="M107.188 125.227H62.527V134.158H107.188V125.227Z" fill="#8DCE00"/>
<path d="M107.188 53.788H98.257V62.7185H107.188V53.788Z" fill="#8DCE00"/>
<path d="M142.918 107.368H116.121V116.298H142.918V107.368Z" fill="#8DCE00"/>
<path d="M169.715 116.298H125.054V125.227H169.715V116.298Z" fill="#8DCE00"/>
<path d="M151.851 125.227H125.054V134.158H151.851V125.227Z" fill="white"/>
<path d="M107.188 134.158H62.527V143.086H107.188V134.158Z" fill="white"/>
<path d="M44.6631 125.227H17.8643V134.158H44.6631V125.227Z" fill="white"/>
<path d="M169.715 116.298H160.782V143.086H169.715V116.298Z" fill="#8DCE00"/>
<path d="M8.93321 116.298H0.000244141V143.086H8.93321V116.298Z" fill="#8DCE00"/>
<path d="M35.7301 107.368H8.93323V116.298H35.7301V107.368Z" fill="#8DCE00"/>
<path d="M44.6631 116.298H0.000244141V125.227H44.6631V116.298Z" fill="#8DCE00"/>
<path d="M53.5941 107.368H26.7971V116.298H53.5941V107.368Z" fill="#8DCE00"/>
<path d="M71.4599 53.788H62.527V62.7185H71.4599V53.788Z" fill="#8DCE00"/>
<path d="M71.4599 80.5778H62.527V98.4372H71.4599V80.5778Z" fill="#80AF00"/>
<path d="M80.391 62.7185H71.46V80.5778H80.391V62.7185Z" fill="#80AF00"/>
<path d="M80.391 107.368H62.527V116.298H80.391V107.368Z" fill="white"/>
<path d="M107.188 80.5778H98.257V98.4372H107.188V80.5778Z" fill="#80AF00"/>
<path d="M98.2569 62.7185H89.324V80.5778H98.2569V62.7185Z" fill="#80AF00"/>
<path d="M107.188 107.368H89.324V116.298H107.188V107.368Z" fill="white"/>
<path d="M89.324 0.208145H80.391V9.13877H89.324V0.208145Z" fill="#CAF72B"/>
<path d="M98.2569 26.998H89.324V35.9287H98.2569V26.998Z" fill="#80AF00"/>
<path d="M80.391 26.998H71.46V35.9287H80.391V26.998Z" fill="#80AF00"/>
<path d="M125.054 80.5778H116.121V89.5085H125.054V80.5778Z" fill="#8DCE00"/>
<path d="M142.918 98.4372H133.985V107.368H142.918V98.4372Z" fill="#8DCE00"/>
<path d="M160.782 80.5778H151.851V89.5085H160.782V80.5778Z" fill="#8DCE00"/>
<path d="M151.851 53.788H142.918V98.4372H151.851V53.788Z" fill="#8DCE00"/>
<path d="M133.985 53.788H125.054V98.4372H133.985V53.788Z" fill="#8DCE00"/>
<path d="M142.918 53.788H133.985V98.4372H142.918V53.788Z" fill="#8DCE00"/>
<path d="M142.918 44.8574H133.985V53.788H142.918V44.8574Z" fill="#8DCE00"/>
<path d="M142.918 35.9286H133.985V44.8573H142.918V35.9286Z" fill="#CAF72B"/>
<path d="M151.851 53.788H142.918V62.7185H151.851V53.788Z" fill="#80AF00"/>
<path d="M160.782 107.368H151.851V116.298H160.782V107.368Z" fill="#80AF00"/>
<path d="M17.8643 107.368H8.93323V116.298H17.8643V107.368Z" fill="#80AF00"/>
<path d="M133.985 53.788H125.054V62.7185H133.985V53.788Z" fill="#80AF00"/>
<path d="M142.918 53.788H133.985V71.6472H142.918V53.788Z" fill="white"/>
<path d="M17.8643 80.5778H8.93323V89.5085H17.8643V80.5778Z" fill="#8DCE00"/>
<path d="M35.7301 98.4372H26.7971V107.368H35.7301V98.4372Z" fill="#8DCE00"/>
<path d="M53.5941 80.5778H44.6631V89.5085H53.5941V80.5778Z" fill="#8DCE00"/>
<path d="M44.6631 53.788H35.7301V98.4372H44.6631V53.788Z" fill="#8DCE00"/>
<path d="M26.7972 53.788H17.8643V98.4372H26.7972V53.788Z" fill="#8DCE00"/>
<path d="M35.7301 53.788H26.7971V98.4372H35.7301V53.788Z" fill="#8DCE00"/>
<path d="M35.7301 44.8574H26.7971V53.788H35.7301V44.8574Z" fill="#8DCE00"/>
<path d="M35.7301 35.9286H26.7971V44.8573H35.7301V35.9286Z" fill="#CAF72B"/>
<path d="M44.6631 53.788H35.7301V62.7185H44.6631V53.788Z" fill="#80AF00"/>
<path d="M26.7972 53.788H17.8643V62.7185H26.7972V53.788Z" fill="#80AF00"/>
<path d="M35.7301 53.788H26.7971V71.6472H35.7301V53.788Z" fill="white"/>
<path d="M151.851 89.5085H142.918V98.4372H151.851V89.5085Z" fill="#80AF00"/>
<path d="M133.985 89.5085H125.054V98.4372H133.985V89.5085Z" fill="#80AF00"/>
<path d="M125.054 107.368H116.121V116.298H125.054V107.368Z" fill="#80AF00"/>
<path d="M53.5941 107.368H44.6631V116.298H53.5941V107.368Z" fill="#80AF00"/>
<path d="M44.6631 89.5085H35.7301V98.4372H44.6631V89.5085Z" fill="#80AF00"/>
<path d="M26.7972 89.5085H17.8643V98.4372H26.7972V89.5085Z" fill="#80AF00"/>
<path d="M89.324 26.998H80.391V53.788H89.324V26.998Z" fill="white"/>
<path d="M35.7301 149.785H26.7971V167.645H35.7301V149.785Z" fill="#FFD112"/>
<path d="M44.6631 140.855H35.7301V158.714H44.6631V140.855Z" fill="#FFD112"/>
<path d="M26.7972 140.855H17.8643V158.714H26.7972V140.855Z" fill="#FFD112"/>
<path d="M35.7301 140.855H26.7971V158.714H35.7301V140.855Z" fill="#FF9B25"/>
<path d="M142.918 149.785H133.985V167.645H142.918V149.785Z" fill="#FFD112"/>
<path d="M151.851 140.855H142.918V158.714H151.851V140.855Z" fill="#FFD112"/>
<path d="M133.985 140.855H125.054V158.714H133.985V140.855Z" fill="#FFD112"/>
<path d="M142.918 140.855H133.985V158.714H142.918V140.855Z" fill="#FF9B25"/>
<path d="M89.324 166.686H80.391V184.545H89.324V166.686Z" fill="#FFD112"/>
<path d="M107.188 148.827H98.257V166.686H107.188V148.827Z" fill="#FFD112"/>
<path d="M71.4599 148.827H62.527V166.686H71.4599V148.827Z" fill="#FFD112"/>
<path d="M98.2569 157.756H89.324V175.617H98.2569V157.756Z" fill="#FFD112"/>
<path d="M80.391 157.756H71.46V175.617H80.391V157.756Z" fill="#FFD112"/>
<path d="M89.324 157.756H80.391V175.617H89.324V157.756Z" fill="#FF9B25"/>
</svg>
