<?xml version="1.0" encoding="UTF-8" standalone="no"?>
<!DOCTYPE svg PUBLIC "-//W3C//DTD SVG 1.1//EN" "http://www.w3.org/Graphics/SVG/1.1/DTD/svg11.dtd">
<svg width="100%" height="100%" viewBox="0 0 380 380" version="1.1" xmlns="http://www.w3.org/2000/svg" xmlns:xlink="http://www.w3.org/1999/xlink" xml:space="preserve" xmlns:serif="http://www.serif.com/" style="fill-rule:evenodd;clip-rule:evenodd;stroke-linejoin:round;stroke-miterlimit:2;">
    <g transform="matrix(1,0,0,1,-53.092,-61.1769)">
        <g transform="matrix(5.79862,0,0,5.79862,-207.04,-1365.09)">
            <rect x="58.894" y="292.742" width="37.421" height="4.678" style="fill:rgb(208,90,237);fill-rule:nonzero;"/>
        </g>
        <g transform="matrix(5.79862,0,0,5.79862,-207.04,-1365.09)">
            <rect x="63.572" y="297.42" width="28.066" height="4.678" style="fill:rgb(191,59,224);fill-rule:nonzero;"/>
        </g>
        <g transform="matrix(5.79862,0,0,5.79862,-207.04,-1365.09)">
            <rect x="68.249" y="302.098" width="18.711" height="4.677" style="fill:rgb(177,47,209);fill-rule:nonzero;"/>
        </g>
        <g transform="matrix(5.79862,0,0,5.79862,-207.04,-1365.09)">
            <rect x="54.216" y="288.065" width="46.777" height="4.677" style="fill:white;fill-rule:nonzero;"/>
        </g>
        <g transform="matrix(5.79862,0,0,5.79862,-207.04,-1365.09)">
            <rect x="96.315" y="288.065" width="4.678" height="4.677" style="fill:rgb(255,209,18);fill-rule:nonzero;"/>
        </g>
        <g transform="matrix(5.79862,0,0,5.79862,-207.04,-1365.09)">
            <rect x="58.894" y="288.065" width="4.678" height="4.677" style="fill:rgb(255,209,18);fill-rule:nonzero;"/>
        </g>
        <g transform="matrix(5.79862,0,0,5.79862,-207.04,-1365.09)">
            <rect x="68.249" y="288.065" width="4.678" height="4.677" style="fill:rgb(255,209,18);fill-rule:nonzero;"/>
        </g>
        <g transform="matrix(5.79862,0,0,5.79862,-207.04,-1365.09)">
            <rect x="77.605" y="288.065" width="4.677" height="4.677" style="fill:rgb(255,209,18);fill-rule:nonzero;"/>
        </g>
        <g transform="matrix(5.79862,0,0,5.79862,-207.04,-1365.09)">
            <rect x="86.96" y="288.065" width="4.678" height="4.677" style="fill:rgb(255,209,18);fill-rule:nonzero;"/>
        </g>
        <g transform="matrix(5.79862,0,0,5.79862,-207.04,-1365.09)">
            <rect x="82.282" y="306.775" width="4.678" height="4.678" style="fill:rgb(255,209,18);fill-rule:nonzero;"/>
        </g>
        <g transform="matrix(5.79862,0,0,5.79862,-207.04,-1365.09)">
            <rect x="68.249" y="306.775" width="4.678" height="4.678" style="fill:rgb(255,209,18);fill-rule:nonzero;"/>
        </g>
        <g transform="matrix(5.79862,0,0,5.79862,-207.04,-1365.09)">
            <rect x="58.894" y="259.999" width="37.421" height="4.678" style="fill:rgb(208,90,237);fill-rule:nonzero;"/>
        </g>
        <g transform="matrix(5.79862,0,0,5.79862,-207.04,-1365.09)">
            <rect x="63.572" y="255.321" width="28.066" height="4.678" style="fill:rgb(191,59,224);fill-rule:nonzero;"/>
        </g>
        <g transform="matrix(5.79862,0,0,5.79862,-207.04,-1365.09)">
            <rect x="68.249" y="250.643" width="18.711" height="4.678" style="fill:rgb(177,47,209);fill-rule:nonzero;"/>
        </g>
        <g transform="matrix(5.79862,0,0,5.79862,-207.04,-1365.09)">
            <rect x="54.216" y="264.677" width="46.777" height="4.677" style="fill:white;fill-rule:nonzero;"/>
        </g>
        <g transform="matrix(5.79862,0,0,5.79862,-207.04,-1365.09)">
            <rect x="96.315" y="264.677" width="4.678" height="4.677" style="fill:rgb(255,209,18);fill-rule:nonzero;"/>
        </g>
        <g transform="matrix(5.79862,0,0,5.79862,-207.04,-1365.09)">
            <rect x="58.894" y="264.677" width="4.678" height="4.677" style="fill:rgb(255,209,18);fill-rule:nonzero;"/>
        </g>
        <g transform="matrix(5.79862,0,0,5.79862,-207.04,-1365.09)">
            <rect x="68.249" y="264.677" width="4.678" height="4.677" style="fill:rgb(255,209,18);fill-rule:nonzero;"/>
        </g>
        <g transform="matrix(5.79862,0,0,5.79862,-207.04,-1365.09)">
            <rect x="77.605" y="264.677" width="4.677" height="4.677" style="fill:rgb(255,209,18);fill-rule:nonzero;"/>
        </g>
        <g transform="matrix(5.79862,0,0,5.79862,-207.04,-1365.09)">
            <rect x="86.96" y="264.677" width="4.678" height="4.677" style="fill:rgb(255,209,18);fill-rule:nonzero;"/>
        </g>
        <g transform="matrix(5.79862,0,0,5.79862,-207.04,-1365.09)">
            <rect x="82.282" y="245.966" width="4.678" height="4.677" style="fill:rgb(255,209,18);fill-rule:nonzero;"/>
        </g>
        <g transform="matrix(5.79862,0,0,5.79862,-207.04,-1365.09)">
            <rect x="68.249" y="245.966" width="4.678" height="4.677" style="fill:rgb(255,209,18);fill-rule:nonzero;"/>
        </g>
        <g transform="matrix(5.79862,0,0,5.79862,-207.04,-1365.09)">
            <rect x="100.993" y="283.387" width="4.678" height="4.678" style="fill:white;fill-rule:nonzero;"/>
        </g>
        <g transform="matrix(5.79862,0,0,5.79862,-207.04,-1365.09)">
            <rect x="100.993" y="269.354" width="4.678" height="4.678" style="fill:white;fill-rule:nonzero;"/>
        </g>
        <g transform="matrix(5.79862,0,0,5.79862,-207.04,-1365.09)">
            <rect x="105.671" y="274.032" width="4.678" height="9.355" style="fill:white;fill-rule:nonzero;"/>
        </g>
        <g transform="matrix(5.79862,0,0,5.79862,-207.04,-1365.09)">
            <rect x="49.539" y="283.387" width="4.677" height="4.678" style="fill:white;fill-rule:nonzero;"/>
        </g>
        <g transform="matrix(5.79862,0,0,5.79862,-207.04,-1365.09)">
            <rect x="49.539" y="269.354" width="4.677" height="4.678" style="fill:white;fill-rule:nonzero;"/>
        </g>
        <g transform="matrix(5.79862,0,0,5.79862,-207.04,-1365.09)">
            <rect x="44.861" y="274.032" width="4.678" height="9.355" style="fill:white;fill-rule:nonzero;"/>
        </g>
        <g transform="matrix(5.79862,0,0,5.79862,-207.04,-1365.09)">
            <rect x="86.96" y="274.032" width="9.355" height="9.355" style="fill:white;fill-rule:nonzero;"/>
        </g>
        <g transform="matrix(5.79862,0,0,5.79862,-207.04,-1365.09)">
            <rect x="86.96" y="278.709" width="4.678" height="4.678" style="fill:rgb(191,59,224);fill-rule:nonzero;"/>
        </g>
        <g transform="matrix(5.79862,0,0,5.79862,-207.04,-1365.09)">
            <rect x="68.249" y="274.032" width="9.356" height="9.355" style="fill:white;fill-rule:nonzero;"/>
        </g>
        <g transform="matrix(5.79862,0,0,5.79862,-207.04,-1365.09)">
            <rect x="68.249" y="278.709" width="4.678" height="4.678" style="fill:rgb(191,59,224);fill-rule:nonzero;"/>
        </g>
    </g>
</svg>
