<?xml version="1.0" encoding="UTF-8" standalone="no"?>
<!DOCTYPE svg PUBLIC "-//W3C//DTD SVG 1.1//EN" "http://www.w3.org/Graphics/SVG/1.1/DTD/svg11.dtd">
<svg width="100%" height="100%" viewBox="0 0 332 379" version="1.1" xmlns="http://www.w3.org/2000/svg" xmlns:xlink="http://www.w3.org/1999/xlink" xml:space="preserve" xmlns:serif="http://www.serif.com/" style="fill-rule:evenodd;clip-rule:evenodd;stroke-linejoin:round;stroke-miterlimit:2;">
    <g transform="matrix(1,0,0,1,-85.7235,-54.7713)">
        <g transform="matrix(4.73108,0,0,4.73108,-1759.4,-656.863)">
            <rect x="430" y="170.417" width="25" height="35" style="fill:rgb(255,36,36);fill-rule:nonzero;"/>
        </g>
        <g transform="matrix(4.73108,0,0,4.73108,-1759.4,-656.863)">
            <rect x="435" y="205.417" width="15" height="5" style="fill:rgb(255,36,36);fill-rule:nonzero;"/>
        </g>
        <g transform="matrix(4.73108,0,0,4.73108,-1759.4,-656.863)">
            <rect x="440" y="175.417" width="10" height="10" style="fill:rgb(45,5,51);fill-rule:nonzero;"/>
        </g>
        <g transform="matrix(4.73108,0,0,4.73108,-1759.4,-656.863)">
            <rect x="440" y="185.417" width="10" height="5" style="fill:rgb(45,5,51);fill-rule:nonzero;"/>
        </g>
        <g transform="matrix(4.73108,0,0,4.73108,-1759.4,-656.863)">
            <rect x="440" y="200.417" width="10" height="5" style="fill:rgb(45,5,51);fill-rule:nonzero;"/>
        </g>
        <g transform="matrix(4.73108,0,0,4.73108,-1759.4,-656.863)">
            <rect x="445" y="175.417" width="5" height="5" style="fill:white;fill-rule:nonzero;"/>
        </g>
        <g transform="matrix(4.73108,0,0,4.73108,-1759.4,-656.863)">
            <rect x="445" y="180.417" width="5" height="5" style="fill:white;fill-rule:nonzero;"/>
        </g>
        <g transform="matrix(4.73108,0,0,4.73108,-1759.4,-656.863)">
            <rect x="455" y="175.417" width="5" height="20" style="fill:rgb(141,206,0);fill-rule:nonzero;"/>
        </g>
        <g transform="matrix(4.73108,0,0,4.73108,-1759.4,-656.863)">
            <rect x="425" y="175.417" width="10" height="20" style="fill:rgb(141,206,0);fill-rule:nonzero;"/>
        </g>
        <g transform="matrix(4.73108,0,0,4.73108,-1759.4,-656.863)">
            <rect x="425" y="175.417" width="5" height="20" style="fill:rgb(128,175,0);fill-rule:nonzero;"/>
        </g>
        <g transform="matrix(4.73108,0,0,4.73108,-1759.4,-656.863)">
            <rect x="450" y="165.417" width="5" height="5" style="fill:white;fill-rule:nonzero;"/>
        </g>
        <g transform="matrix(4.73108,0,0,4.73108,-1759.4,-656.863)">
            <rect x="435" y="165.417" width="5" height="5" style="fill:white;fill-rule:nonzero;"/>
        </g>
        <g transform="matrix(4.73108,0,0,4.73108,-1759.4,-656.863)">
            <rect x="435" y="195.417" width="5" height="5" style="fill:rgb(45,5,51);fill-rule:nonzero;"/>
        </g>
        <g transform="matrix(4.73108,0,0,4.73108,-1759.4,-656.863)">
            <rect x="430" y="195.417" width="5" height="10" style="fill:rgb(224,16,16);fill-rule:nonzero;"/>
        </g>
        <g transform="matrix(4.73108,0,0,4.73108,-1759.4,-656.863)">
            <rect x="455" y="160.417" width="5" height="5" style="fill:rgb(141,206,0);fill-rule:nonzero;"/>
        </g>
        <g transform="matrix(4.73108,0,0,4.73108,-1759.4,-656.863)">
            <rect x="430" y="160.417" width="5" height="5" style="fill:rgb(141,206,0);fill-rule:nonzero;"/>
        </g>
        <g transform="matrix(4.73108,0,0,4.73108,-1759.4,-656.863)">
            <rect x="420" y="220.417" width="5" height="5" style="fill:rgb(141,206,0);fill-rule:nonzero;"/>
        </g>
        <g transform="matrix(4.73108,0,0,4.73108,-1759.4,-656.863)">
            <rect x="395" y="215.417" width="5" height="5" style="fill:rgb(141,206,0);fill-rule:nonzero;"/>
        </g>
        <g transform="matrix(4.73108,0,0,4.73108,-1759.4,-656.863)">
            <rect x="425" y="225.417" width="5" height="5" style="fill:rgb(141,206,0);fill-rule:nonzero;"/>
        </g>
        <g transform="matrix(4.73108,0,0,4.73108,-1759.4,-656.863)">
            <rect x="390" y="210.417" width="5" height="5" style="fill:rgb(141,206,0);fill-rule:nonzero;"/>
        </g>
        <g transform="matrix(4.73108,0,0,4.73108,-1759.4,-656.863)">
            <rect x="410" y="220.417" width="5" height="10" style="fill:rgb(128,175,0);fill-rule:nonzero;"/>
        </g>
        <g transform="matrix(4.73108,0,0,4.73108,-1759.4,-656.863)">
            <rect x="400" y="220.417" width="5" height="10" style="fill:rgb(128,175,0);fill-rule:nonzero;"/>
        </g>
        <g transform="matrix(4.73108,0,0,4.73108,-1759.4,-656.863)">
            <rect x="395" y="160.417" width="25" height="35" style="fill:rgb(255,36,36);fill-rule:nonzero;"/>
        </g>
        <g transform="matrix(4.73108,0,0,4.73108,-1759.4,-656.863)">
            <rect x="400" y="195.417" width="15" height="5" style="fill:rgb(255,36,36);fill-rule:nonzero;"/>
        </g>
        <g transform="matrix(4.73108,0,0,4.73108,-1759.4,-656.863)">
            <rect x="405" y="165.417" width="10" height="10" style="fill:rgb(45,5,51);fill-rule:nonzero;"/>
        </g>
        <g transform="matrix(4.73108,0,0,4.73108,-1759.4,-656.863)">
            <rect x="405" y="175.417" width="10" height="5" style="fill:rgb(45,5,51);fill-rule:nonzero;"/>
        </g>
        <g transform="matrix(4.73108,0,0,4.73108,-1759.4,-656.863)">
            <rect x="405" y="190.417" width="10" height="5" style="fill:rgb(45,5,51);fill-rule:nonzero;"/>
        </g>
        <g transform="matrix(4.73108,0,0,4.73108,-1759.4,-656.863)">
            <rect x="410" y="165.417" width="5" height="5" style="fill:white;fill-rule:nonzero;"/>
        </g>
        <g transform="matrix(4.73108,0,0,4.73108,-1759.4,-656.863)">
            <rect x="410" y="170.417" width="5" height="5" style="fill:white;fill-rule:nonzero;"/>
        </g>
        <g transform="matrix(4.73108,0,0,4.73108,-1759.4,-656.863)">
            <rect x="420" y="165.417" width="5" height="20" style="fill:rgb(141,206,0);fill-rule:nonzero;"/>
        </g>
        <g transform="matrix(4.73108,0,0,4.73108,-1759.4,-656.863)">
            <rect x="390" y="165.417" width="10" height="20" style="fill:rgb(141,206,0);fill-rule:nonzero;"/>
        </g>
        <g transform="matrix(4.73108,0,0,4.73108,-1759.4,-656.863)">
            <rect x="390" y="165.417" width="5" height="20" style="fill:rgb(128,175,0);fill-rule:nonzero;"/>
        </g>
        <g transform="matrix(4.73108,0,0,4.73108,-1759.4,-656.863)">
            <rect x="415" y="155.417" width="5" height="5" style="fill:white;fill-rule:nonzero;"/>
        </g>
        <g transform="matrix(4.73108,0,0,4.73108,-1759.4,-656.863)">
            <rect x="400" y="155.417" width="5" height="5" style="fill:white;fill-rule:nonzero;"/>
        </g>
        <g transform="matrix(4.73108,0,0,4.73108,-1759.4,-656.863)">
            <rect x="400" y="185.417" width="5" height="5" style="fill:rgb(45,5,51);fill-rule:nonzero;"/>
        </g>
        <g transform="matrix(4.73108,0,0,4.73108,-1759.4,-656.863)">
            <rect x="395" y="185.417" width="5" height="10.231" style="fill:rgb(224,16,16);fill-rule:nonzero;"/>
        </g>
        <g transform="matrix(4.73108,0,0,4.73108,-1759.4,-656.863)">
            <rect x="420" y="150.417" width="5" height="5" style="fill:rgb(141,206,0);fill-rule:nonzero;"/>
        </g>
        <g transform="matrix(4.73108,0,0,4.73108,-1759.4,-656.863)">
            <rect x="395" y="150.417" width="5" height="5" style="fill:rgb(141,206,0);fill-rule:nonzero;"/>
        </g>
        <g transform="matrix(4.73108,0,0,4.73108,-1759.4,-656.863)">
            <rect x="400" y="210.417" width="20" height="10" style="fill:rgb(255,36,36);fill-rule:nonzero;"/>
        </g>
        <g transform="matrix(4.73108,0,0,4.73108,-1759.4,-656.863)">
            <rect x="400" y="200.417" width="5" height="10" style="fill:white;fill-rule:nonzero;"/>
        </g>
        <g transform="matrix(4.73108,0,0,4.73108,-1759.4,-656.863)">
            <rect x="420" y="205.417" width="10" height="5" style="fill:white;fill-rule:nonzero;"/>
        </g>
    </g>
</svg>
