<svg width="430" height="932" viewBox="0 0 430 932" fill="none" xmlns="http://www.w3.org/2000/svg">
<g clip-path="url(#clip0_4_681)">
<rect width="430" height="932" fill="white"/>
<g clip-path="url(#clip1_4_681)">
<path d="M480.935 699.169H-51.4261V932.153H480.935V699.169Z" fill="#2D0533"/>
<path d="M480.935 469.307H-51.4261V702.291H480.935V469.307Z" fill="#28022E"/>
<path d="M480.935 231.503H-51.4261V472.588H480.935V231.503Z" fill="#210925"/>
<path d="M480.935 -19.112H-51.4261V233.911H480.935V-19.112Z" fill="#1F0023"/>
<path d="M385.247 602.962H373.948V614.27H385.247V602.962Z" fill="white"/>
<path d="M385.247 597.308H373.948V602.962H385.247V597.308Z" fill="#762789"/>
<path d="M385.247 591.654H373.948V597.308H385.247V591.654Z" fill="#581468"/>
<path d="M385.247 586H373.948V591.654H385.247V586Z" fill="#470A56"/>
<path d="M390.897 602.962H385.247V614.27H390.897V602.962Z" fill="#762789"/>
<path d="M396.546 602.962H390.897V614.27H396.546V602.962Z" fill="#581468"/>
<path d="M402.196 602.962H396.546V614.27H402.196V602.962Z" fill="#470A56"/>
<path d="M362.649 602.962H357V614.27H362.649V602.962Z" fill="#470A56"/>
<path d="M373.948 602.962H368.299V614.27H373.948V602.962Z" fill="#762789"/>
<path d="M368.299 602.962H362.649V614.27H368.299V602.962Z" fill="#581468"/>
<path d="M385.247 614.27H373.948V619.924H385.247V614.27Z" fill="#762789"/>
<path d="M385.247 619.923H373.948V625.577H385.247V619.923Z" fill="#581468"/>
<path d="M385.247 625.577H373.948V631.231H385.247V625.577Z" fill="#470A56"/>
<path d="M390.897 597.308H385.247V602.962H390.897V597.308Z" fill="#581468"/>
<path d="M368.299 597.308H362.649V602.962H368.299V597.308Z" fill="#470A56"/>
<path d="M368.299 614.27H362.649V619.924H368.299V614.27Z" fill="#470A56"/>
<path d="M390.897 591.654H385.247V597.308H390.897V591.654Z" fill="#470A56"/>
<path d="M373.948 591.654H368.299V597.308H373.948V591.654Z" fill="#470A56"/>
<path d="M373.948 619.923H368.299V625.577H373.948V619.923Z" fill="#470A56"/>
<path d="M390.897 619.923H385.247V625.577H390.897V619.923Z" fill="#470A56"/>
<path d="M396.546 597.308H390.897V602.962H396.546V597.308Z" fill="#470A56"/>
<path d="M396.546 614.27H390.897V619.924H396.546V614.27Z" fill="#470A56"/>
<path d="M373.948 597.308H368.299V602.962H373.948V597.308Z" fill="#581468"/>
<path d="M390.897 614.27H385.247V619.924H390.897V614.27Z" fill="#581468"/>
<path d="M373.948 614.27H368.299V619.924H373.948V614.27Z" fill="#581468"/>
<path d="M149.247 871.962H137.948V883.27H149.247V871.962Z" fill="white"/>
<path d="M149.247 866.308H137.948V871.962H149.247V866.308Z" fill="#762789"/>
<path d="M149.247 860.654H137.948V866.308H149.247V860.654Z" fill="#581468"/>
<path d="M149.247 855H137.948V860.654H149.247V855Z" fill="#470A56"/>
<path d="M154.897 871.962H149.247V883.27H154.897V871.962Z" fill="#762789"/>
<path d="M160.546 871.962H154.897V883.27H160.546V871.962Z" fill="#581468"/>
<path d="M166.196 871.962H160.546V883.27H166.196V871.962Z" fill="#470A56"/>
<path d="M126.649 871.962H121V883.27H126.649V871.962Z" fill="#470A56"/>
<path d="M137.948 871.962H132.299V883.27H137.948V871.962Z" fill="#762789"/>
<path d="M132.299 871.962H126.649V883.27H132.299V871.962Z" fill="#581468"/>
<path d="M149.247 883.27H137.948V888.924H149.247V883.27Z" fill="#762789"/>
<path d="M149.247 888.923H137.948V894.577H149.247V888.923Z" fill="#581468"/>
<path d="M149.247 894.577H137.948V900.231H149.247V894.577Z" fill="#470A56"/>
<path d="M154.897 866.308H149.247V871.962H154.897V866.308Z" fill="#581468"/>
<path d="M132.299 866.308H126.649V871.962H132.299V866.308Z" fill="#470A56"/>
<path d="M132.299 883.27H126.649V888.924H132.299V883.27Z" fill="#470A56"/>
<path d="M154.897 860.654H149.247V866.308H154.897V860.654Z" fill="#470A56"/>
<path d="M137.948 860.654H132.299V866.308H137.948V860.654Z" fill="#470A56"/>
<path d="M137.948 888.923H132.299V894.577H137.948V888.923Z" fill="#470A56"/>
<path d="M154.897 888.923H149.247V894.577H154.897V888.923Z" fill="#470A56"/>
<path d="M160.546 866.308H154.897V871.962H160.546V866.308Z" fill="#470A56"/>
<path d="M160.546 883.27H154.897V888.924H160.546V883.27Z" fill="#470A56"/>
<path d="M137.948 866.308H132.299V871.962H137.948V866.308Z" fill="#581468"/>
<path d="M154.897 883.27H149.247V888.924H154.897V883.27Z" fill="#581468"/>
<path d="M137.948 883.27H132.299V888.924H137.948V883.27Z" fill="#581468"/>
<path d="M34.1879 235.21H22.889V246.517H34.1879V235.21Z" fill="white"/>
<path d="M34.1879 229.556H22.889V235.209H34.1879V229.556Z" fill="#762789"/>
<path d="M34.1879 223.902H22.889V229.556H34.1879V223.902Z" fill="#581468"/>
<path d="M34.1879 218.248H22.889V223.902H34.1879V218.248Z" fill="#470A56"/>
<path d="M39.8374 235.21H34.1879V246.517H39.8374V235.21Z" fill="#762789"/>
<path d="M45.4868 235.21H39.8373V246.517H45.4868V235.21Z" fill="#581468"/>
<path d="M51.1363 235.21H45.4868V246.517H51.1363V235.21Z" fill="#470A56"/>
<path d="M11.5901 235.21H5.94067V246.517H11.5901V235.21Z" fill="#470A56"/>
<path d="M22.889 235.21H17.2396V246.517H22.889V235.21Z" fill="#762789"/>
<path d="M17.2396 235.21H11.5901V246.517H17.2396V235.21Z" fill="#581468"/>
<path d="M34.1879 246.517H22.889V252.171H34.1879V246.517Z" fill="#762789"/>
<path d="M34.1879 252.171H22.889V257.825H34.1879V252.171Z" fill="#581468"/>
<path d="M34.1879 257.825H22.889V263.479H34.1879V257.825Z" fill="#470A56"/>
<path d="M39.8374 229.556H34.1879V235.209H39.8374V229.556Z" fill="#581468"/>
<path d="M17.2396 229.556H11.5901V235.209H17.2396V229.556Z" fill="#470A56"/>
<path d="M17.2396 246.517H11.5901V252.171H17.2396V246.517Z" fill="#470A56"/>
<path d="M39.8374 223.902H34.1879V229.556H39.8374V223.902Z" fill="#470A56"/>
<path d="M22.889 223.902H17.2396V229.556H22.889V223.902Z" fill="#470A56"/>
<path d="M22.889 252.171H17.2396V257.825H22.889V252.171Z" fill="#470A56"/>
<path d="M39.8374 252.171H34.1879V257.825H39.8374V252.171Z" fill="#470A56"/>
<path d="M45.4868 229.556H39.8373V235.209H45.4868V229.556Z" fill="#470A56"/>
<path d="M45.4868 246.517H39.8373V252.171H45.4868V246.517Z" fill="#470A56"/>
<path d="M22.889 229.556H17.2396V235.209H22.889V229.556Z" fill="#581468"/>
<path d="M39.8374 246.517H34.1879V252.171H39.8374V246.517Z" fill="#581468"/>
<path d="M22.889 246.517H17.2396V252.171H22.889V246.517Z" fill="#581468"/>
<path d="M57.2473 451.962H45.9484V463.27H57.2473V451.962Z" fill="white"/>
<path d="M57.2473 446.308H45.9484V451.962H57.2473V446.308Z" fill="#762789"/>
<path d="M57.2473 440.654H45.9484V446.308H57.2473V440.654Z" fill="#581468"/>
<path d="M57.2473 435H45.9484V440.654H57.2473V435Z" fill="#470A56"/>
<path d="M62.8967 451.962H57.2473V463.27H62.8967V451.962Z" fill="#762789"/>
<path d="M68.5461 451.962H62.8967V463.27H68.5461V451.962Z" fill="#581468"/>
<path d="M74.1956 451.962H68.5461V463.27H74.1956V451.962Z" fill="#470A56"/>
<path d="M34.6494 451.962H29V463.27H34.6494V451.962Z" fill="#470A56"/>
<path d="M45.9483 451.962H40.2989V463.27H45.9483V451.962Z" fill="#762789"/>
<path d="M40.2989 451.962H34.6495V463.27H40.2989V451.962Z" fill="#581468"/>
<path d="M57.2473 463.27H45.9484V468.924H57.2473V463.27Z" fill="#762789"/>
<path d="M57.2473 468.924H45.9484V474.577H57.2473V468.924Z" fill="#581468"/>
<path d="M57.2473 474.577H45.9484V480.231H57.2473V474.577Z" fill="#470A56"/>
<path d="M62.8967 446.308H57.2473V451.962H62.8967V446.308Z" fill="#581468"/>
<path d="M40.2989 446.308H34.6495V451.962H40.2989V446.308Z" fill="#470A56"/>
<path d="M40.2989 463.27H34.6495V468.924H40.2989V463.27Z" fill="#470A56"/>
<path d="M62.8967 440.654H57.2473V446.308H62.8967V440.654Z" fill="#470A56"/>
<path d="M45.9483 440.654H40.2989V446.308H45.9483V440.654Z" fill="#470A56"/>
<path d="M45.9483 468.924H40.2989V474.577H45.9483V468.924Z" fill="#470A56"/>
<path d="M62.8967 468.924H57.2473V474.577H62.8967V468.924Z" fill="#470A56"/>
<path d="M68.5461 446.308H62.8967V451.962H68.5461V446.308Z" fill="#470A56"/>
<path d="M68.5461 463.27H62.8967V468.924H68.5461V463.27Z" fill="#470A56"/>
<path d="M45.9483 446.308H40.2989V451.962H45.9483V446.308Z" fill="#581468"/>
<path d="M62.8967 463.27H57.2473V468.924H62.8967V463.27Z" fill="#581468"/>
<path d="M45.9483 463.27H40.2989V468.924H45.9483V463.27Z" fill="#581468"/>
<path d="M371.247 237.962H359.948V249.27H371.247V237.962Z" fill="white"/>
<path d="M371.247 232.308H359.948V237.962H371.247V232.308Z" fill="#762789"/>
<path d="M371.247 226.654H359.948V232.308H371.247V226.654Z" fill="#581468"/>
<path d="M371.247 221H359.948V226.654H371.247V221Z" fill="#470A56"/>
<path d="M376.897 237.962H371.247V249.27H376.897V237.962Z" fill="#762789"/>
<path d="M382.546 237.962H376.897V249.27H382.546V237.962Z" fill="#581468"/>
<path d="M388.196 237.962H382.546V249.27H388.196V237.962Z" fill="#470A56"/>
<path d="M348.649 237.962H343V249.27H348.649V237.962Z" fill="#470A56"/>
<path d="M359.948 237.962H354.299V249.27H359.948V237.962Z" fill="#762789"/>
<path d="M354.299 237.962H348.649V249.27H354.299V237.962Z" fill="#581468"/>
<path d="M371.247 249.27H359.948V254.924H371.247V249.27Z" fill="#762789"/>
<path d="M371.247 254.923H359.948V260.577H371.247V254.923Z" fill="#581468"/>
<path d="M371.247 260.577H359.948V266.231H371.247V260.577Z" fill="#470A56"/>
<path d="M376.897 232.308H371.247V237.962H376.897V232.308Z" fill="#581468"/>
<path d="M354.299 232.308H348.649V237.962H354.299V232.308Z" fill="#470A56"/>
<path d="M354.299 249.27H348.649V254.924H354.299V249.27Z" fill="#470A56"/>
<path d="M376.897 226.654H371.247V232.308H376.897V226.654Z" fill="#470A56"/>
<path d="M359.948 226.654H354.299V232.308H359.948V226.654Z" fill="#470A56"/>
<path d="M359.948 254.923H354.299V260.577H359.948V254.923Z" fill="#470A56"/>
<path d="M376.897 254.923H371.247V260.577H376.897V254.923Z" fill="#470A56"/>
<path d="M382.546 232.308H376.897V237.962H382.546V232.308Z" fill="#470A56"/>
<path d="M382.546 249.27H376.897V254.924H382.546V249.27Z" fill="#470A56"/>
<path d="M359.948 232.308H354.299V237.962H359.948V232.308Z" fill="#581468"/>
<path d="M376.897 249.27H371.247V254.924H376.897V249.27Z" fill="#581468"/>
<path d="M359.948 249.27H354.299V254.924H359.948V249.27Z" fill="#581468"/>
</g>
</g>
<defs>
<clipPath id="clip0_4_681">
<rect width="430" height="932" fill="white"/>
</clipPath>
<clipPath id="clip1_4_681">
<rect width="532" height="947" fill="white" transform="translate(-51 -15)"/>
</clipPath>
</defs>
</svg>
