<?xml version="1.0" encoding="UTF-8" standalone="no"?>
<!DOCTYPE svg PUBLIC "-//W3C//DTD SVG 1.1//EN" "http://www.w3.org/Graphics/SVG/1.1/DTD/svg11.dtd">
<svg width="100%" height="100%" viewBox="0 0 909 39" version="1.1" xmlns="http://www.w3.org/2000/svg" xmlns:xlink="http://www.w3.org/1999/xlink" xml:space="preserve" xmlns:serif="http://www.serif.com/" style="fill-rule:evenodd;clip-rule:evenodd;stroke-linejoin:round;stroke-miterlimit:2;">
    <g transform="matrix(1,0,0,1,-75.912,-971.41)">
        <g>
            <g transform="matrix(0.605338,0,0,0.605338,75.912,202.626)">
                <g transform="matrix(1.27337,0,0,1.27337,0,773.393)">
                    <path d="M65,410L65,415L105,415L105,410L185,410L185,415L210,415L210,410L475,410L475,415L505,415L505,410L590,410L590,440L0,440L0,410L65,410Z" style="fill:rgb(234,172,104);fill-rule:nonzero;"/>
                </g>
                <g transform="matrix(1.27337,0,0,1.27337,0,773.393)">
                    <rect x="0" y="430" width="590" height="5" style="fill:rgb(221,147,72);fill-rule:nonzero;"/>
                </g>
                <g transform="matrix(1.27337,0,0,1.27337,0,773.393)">
                    <rect x="0" y="435" width="590" height="5" style="fill:rgb(216,138,61);fill-rule:nonzero;"/>
                </g>
                <g transform="matrix(1.27337,0,0,1.27337,0,773.393)">
                    <rect x="0" y="425" width="590" height="5" style="fill:rgb(225,155,82);fill-rule:nonzero;"/>
                </g>
                <g transform="matrix(1.27337,0,0,1.27337,0,773.393)">
                    <rect x="0" y="420" width="590" height="5" style="fill:rgb(229,163,93);fill-rule:nonzero;"/>
                </g>
                <g transform="matrix(1.27337,0,0,1.27337,0,773.393)">
                    <rect x="510" y="405" width="80" height="5" style="fill:rgb(216,138,61);fill-rule:nonzero;"/>
                </g>
                <g transform="matrix(1.27337,0,0,1.27337,0,773.393)">
                    <rect x="520" y="400" width="55" height="5" style="fill:rgb(216,138,61);fill-rule:nonzero;"/>
                </g>
                <g transform="matrix(1.27337,0,0,1.27337,0,773.393)">
                    <rect x="530" y="395" width="35" height="5" style="fill:rgb(216,138,61);fill-rule:nonzero;"/>
                </g>
                <g transform="matrix(1.27337,0,0,1.27337,0,773.393)">
                    <rect x="550" y="390" width="10" height="5" style="fill:rgb(216,138,61);fill-rule:nonzero;"/>
                </g>
                <g transform="matrix(1.27337,0,0,1.27337,0,773.393)">
                    <rect x="540" y="390" width="10" height="5" style="fill:rgb(216,138,61);fill-rule:nonzero;"/>
                </g>
                <g transform="matrix(1.27337,0,0,1.27337,0,773.393)">
                    <rect x="535" y="405" width="30" height="5" style="fill:rgb(201,122,50);fill-rule:nonzero;"/>
                </g>
                <g transform="matrix(1.27337,0,0,1.27337,0,773.393)">
                    <rect x="530" y="395" width="15" height="5" style="fill:rgb(229,163,93);fill-rule:nonzero;"/>
                </g>
                <g transform="matrix(1.27337,0,0,1.27337,0,773.393)">
                    <rect x="540" y="390" width="15" height="5" style="fill:rgb(229,163,93);fill-rule:nonzero;"/>
                </g>
                <g transform="matrix(1.27337,0,0,1.27337,0,773.393)">
                    <rect x="520" y="400" width="15" height="5" style="fill:rgb(229,163,93);fill-rule:nonzero;"/>
                </g>
                <g transform="matrix(1.27337,0,0,1.27337,0,773.393)">
                    <rect x="510" y="405" width="15" height="5" style="fill:rgb(229,163,93);fill-rule:nonzero;"/>
                </g>
                <g transform="matrix(1.27337,0,0,1.27337,0,773.393)">
                    <rect x="540" y="390" width="5" height="5" style="fill:rgb(234,172,104);fill-rule:nonzero;"/>
                </g>
                <g transform="matrix(1.27337,0,0,1.27337,0,773.393)">
                    <rect x="530" y="395" width="5" height="5" style="fill:rgb(234,172,104);fill-rule:nonzero;"/>
                </g>
                <g transform="matrix(1.27337,0,0,1.27337,0,773.393)">
                    <rect x="520" y="400" width="5" height="5" style="fill:rgb(234,172,104);fill-rule:nonzero;"/>
                </g>
                <g transform="matrix(1.27337,0,0,1.27337,0,773.393)">
                    <rect x="510" y="405" width="5" height="5" style="fill:rgb(234,172,104);fill-rule:nonzero;"/>
                </g>
                <g transform="matrix(1.27337,0,0,1.27337,0,773.393)">
                    <rect x="545" y="400" width="5" height="5" style="fill:rgb(201,122,50);fill-rule:nonzero;"/>
                </g>
                <g transform="matrix(1.27337,0,0,1.27337,0,773.393)">
                    <rect x="250" y="405" width="70" height="5" style="fill:rgb(216,138,61);fill-rule:nonzero;"/>
                </g>
                <g transform="matrix(1.27337,0,0,1.27337,0,773.393)">
                    <rect x="260" y="400" width="55" height="5" style="fill:rgb(216,138,61);fill-rule:nonzero;"/>
                </g>
                <g transform="matrix(1.27337,0,0,1.27337,0,773.393)">
                    <rect x="270" y="395" width="35" height="5" style="fill:rgb(216,138,61);fill-rule:nonzero;"/>
                </g>
                <g transform="matrix(1.27337,0,0,1.27337,0,773.393)">
                    <rect x="290" y="390" width="10" height="5" style="fill:rgb(216,138,61);fill-rule:nonzero;"/>
                </g>
                <g transform="matrix(1.27337,0,0,1.27337,0,773.393)">
                    <rect x="280" y="390" width="10" height="5" style="fill:rgb(216,138,61);fill-rule:nonzero;"/>
                </g>
                <g transform="matrix(1.27337,0,0,1.27337,0,773.393)">
                    <rect x="275" y="405" width="40" height="5" style="fill:rgb(201,122,50);fill-rule:nonzero;"/>
                </g>
                <g transform="matrix(1.27337,0,0,1.27337,0,773.393)">
                    <rect x="270" y="395" width="15" height="5" style="fill:rgb(229,163,93);fill-rule:nonzero;"/>
                </g>
                <g transform="matrix(1.27337,0,0,1.27337,0,773.393)">
                    <rect x="280" y="390" width="15" height="5" style="fill:rgb(229,163,93);fill-rule:nonzero;"/>
                </g>
                <g transform="matrix(1.27337,0,0,1.27337,0,773.393)">
                    <rect x="260" y="400" width="15" height="5" style="fill:rgb(229,163,93);fill-rule:nonzero;"/>
                </g>
                <g transform="matrix(1.27337,0,0,1.27337,0,773.393)">
                    <rect x="250" y="405" width="15" height="5" style="fill:rgb(229,163,93);fill-rule:nonzero;"/>
                </g>
                <g transform="matrix(1.27337,0,0,1.27337,0,773.393)">
                    <rect x="280" y="390" width="5" height="5" style="fill:rgb(234,172,104);fill-rule:nonzero;"/>
                </g>
                <g transform="matrix(1.27337,0,0,1.27337,0,773.393)">
                    <rect x="270" y="395" width="5" height="5" style="fill:rgb(234,172,104);fill-rule:nonzero;"/>
                </g>
                <g transform="matrix(1.27337,0,0,1.27337,0,773.393)">
                    <rect x="260" y="400" width="5" height="5" style="fill:rgb(234,172,104);fill-rule:nonzero;"/>
                </g>
                <g transform="matrix(1.27337,0,0,1.27337,0,773.393)">
                    <rect x="250" y="405" width="5" height="5" style="fill:rgb(234,172,104);fill-rule:nonzero;"/>
                </g>
                <g transform="matrix(1.27337,0,0,1.27337,0,773.393)">
                    <rect x="285" y="400" width="5" height="5" style="fill:rgb(201,122,50);fill-rule:nonzero;"/>
                </g>
                <g transform="matrix(1.27337,0,0,1.27337,0,773.393)">
                    <rect x="300" y="400" width="5" height="5" style="fill:rgb(201,122,50);fill-rule:nonzero;"/>
                </g>
                <g transform="matrix(1.27337,0,0,1.27337,0,773.393)">
                    <rect x="110" y="405" width="70" height="5" style="fill:rgb(216,138,61);fill-rule:nonzero;"/>
                </g>
                <g transform="matrix(1.27337,0,0,1.27337,0,773.393)">
                    <rect x="120" y="400" width="55" height="5" style="fill:rgb(216,138,61);fill-rule:nonzero;"/>
                </g>
                <g transform="matrix(1.27337,0,0,1.27337,0,773.393)">
                    <rect x="130" y="395" width="35" height="5" style="fill:rgb(216,138,61);fill-rule:nonzero;"/>
                </g>
                <g transform="matrix(1.27337,0,0,1.27337,0,773.393)">
                    <rect x="150" y="390" width="10" height="5" style="fill:rgb(216,138,61);fill-rule:nonzero;"/>
                </g>
                <g transform="matrix(1.27337,0,0,1.27337,0,773.393)">
                    <rect x="140" y="390" width="10" height="5" style="fill:rgb(216,138,61);fill-rule:nonzero;"/>
                </g>
                <g transform="matrix(1.27337,0,0,1.27337,0,773.393)">
                    <rect x="135" y="405" width="40" height="5" style="fill:rgb(201,122,50);fill-rule:nonzero;"/>
                </g>
                <g transform="matrix(1.27337,0,0,1.27337,0,773.393)">
                    <rect x="130" y="395" width="15" height="5" style="fill:rgb(229,163,93);fill-rule:nonzero;"/>
                </g>
                <g transform="matrix(1.27337,0,0,1.27337,0,773.393)">
                    <rect x="140" y="390" width="15" height="5" style="fill:rgb(229,163,93);fill-rule:nonzero;"/>
                </g>
                <g transform="matrix(1.27337,0,0,1.27337,0,773.393)">
                    <rect x="120" y="400" width="15" height="5" style="fill:rgb(229,163,93);fill-rule:nonzero;"/>
                </g>
                <g transform="matrix(1.27337,0,0,1.27337,0,773.393)">
                    <rect x="110" y="405" width="15" height="5" style="fill:rgb(229,163,93);fill-rule:nonzero;"/>
                </g>
                <g transform="matrix(1.27337,0,0,1.27337,0,773.393)">
                    <rect x="140" y="390" width="5" height="5" style="fill:rgb(234,172,104);fill-rule:nonzero;"/>
                </g>
                <g transform="matrix(1.27337,0,0,1.27337,0,773.393)">
                    <rect x="130" y="395" width="5" height="5" style="fill:rgb(234,172,104);fill-rule:nonzero;"/>
                </g>
                <g transform="matrix(1.27337,0,0,1.27337,0,773.393)">
                    <rect x="120" y="400" width="5" height="5" style="fill:rgb(234,172,104);fill-rule:nonzero;"/>
                </g>
                <g transform="matrix(1.27337,0,0,1.27337,0,773.393)">
                    <rect x="110" y="405" width="5" height="5" style="fill:rgb(234,172,104);fill-rule:nonzero;"/>
                </g>
                <g transform="matrix(1.27337,0,0,1.27337,0,773.393)">
                    <rect x="145" y="400" width="5" height="5" style="fill:rgb(201,122,50);fill-rule:nonzero;"/>
                </g>
                <g transform="matrix(1.27337,0,0,1.27337,0,773.393)">
                    <rect x="160" y="400" width="5" height="5" style="fill:rgb(201,122,50);fill-rule:nonzero;"/>
                </g>
                <g transform="matrix(1.27337,0,0,1.27337,0,773.393)">
                    <rect x="385" y="405" width="80" height="5" style="fill:rgb(216,138,61);fill-rule:nonzero;"/>
                </g>
                <g transform="matrix(1.27337,0,0,1.27337,0,773.393)">
                    <rect x="345" y="400" width="100" height="5" style="fill:rgb(216,138,61);fill-rule:nonzero;"/>
                </g>
                <g transform="matrix(1.27337,0,0,1.27337,0,773.393)">
                    <rect x="385" y="395" width="50" height="5" style="fill:rgb(216,138,61);fill-rule:nonzero;"/>
                </g>
                <g transform="matrix(1.27337,0,0,1.27337,0,773.393)">
                    <rect x="330" y="405" width="80" height="5" style="fill:rgb(216,138,61);fill-rule:nonzero;"/>
                </g>
                <g transform="matrix(1.27337,0,0,1.27337,0,773.393)">
                    <rect x="365" y="390" width="55" height="5" style="fill:rgb(216,138,61);fill-rule:nonzero;"/>
                </g>
                <g transform="matrix(1.27337,0,0,1.27337,0,773.393)">
                    <rect x="350" y="395" width="35" height="5" style="fill:rgb(216,138,61);fill-rule:nonzero;"/>
                </g>
                <g transform="matrix(1.27337,0,0,1.27337,0,773.393)">
                    <rect x="370" y="395" width="15" height="5" style="fill:rgb(201,122,50);fill-rule:nonzero;"/>
                </g>
                <g transform="matrix(1.27337,0,0,1.27337,0,773.393)">
                    <rect x="370" y="390" width="10" height="5" style="fill:rgb(216,138,61);fill-rule:nonzero;"/>
                </g>
                <g transform="matrix(1.27337,0,0,1.27337,0,773.393)">
                    <rect x="360" y="390" width="10" height="5" style="fill:rgb(216,138,61);fill-rule:nonzero;"/>
                </g>
                <g transform="matrix(1.27337,0,0,1.27337,0,773.393)">
                    <rect x="355" y="405" width="75" height="5" style="fill:rgb(201,122,50);fill-rule:nonzero;"/>
                </g>
                <g transform="matrix(1.27337,0,0,1.27337,0,773.393)">
                    <rect x="350" y="395" width="15" height="5" style="fill:rgb(229,163,93);fill-rule:nonzero;"/>
                </g>
                <g transform="matrix(1.27337,0,0,1.27337,0,773.393)">
                    <rect x="360" y="390" width="40" height="5" style="fill:rgb(229,163,93);fill-rule:nonzero;"/>
                </g>
                <g transform="matrix(1.27337,0,0,1.27337,0,773.393)">
                    <rect x="340" y="400" width="15" height="5" style="fill:rgb(229,163,93);fill-rule:nonzero;"/>
                </g>
                <g transform="matrix(1.27337,0,0,1.27337,0,773.393)">
                    <rect x="330" y="405" width="15" height="5" style="fill:rgb(229,163,93);fill-rule:nonzero;"/>
                </g>
                <g transform="matrix(1.27337,0,0,1.27337,0,773.393)">
                    <rect x="360" y="390" width="5" height="5" style="fill:rgb(234,172,104);fill-rule:nonzero;"/>
                </g>
                <g transform="matrix(1.27337,0,0,1.27337,0,773.393)">
                    <rect x="350" y="395" width="5" height="5" style="fill:rgb(234,172,104);fill-rule:nonzero;"/>
                </g>
                <g transform="matrix(1.27337,0,0,1.27337,0,773.393)">
                    <rect x="340" y="400" width="5" height="5" style="fill:rgb(234,172,104);fill-rule:nonzero;"/>
                </g>
                <g transform="matrix(1.27337,0,0,1.27337,0,773.393)">
                    <rect x="330" y="405" width="5" height="5" style="fill:rgb(234,172,104);fill-rule:nonzero;"/>
                </g>
                <g transform="matrix(1.27337,0,0,1.27337,0,773.393)">
                    <rect x="365" y="400" width="5" height="5" style="fill:rgb(201,122,50);fill-rule:nonzero;"/>
                </g>
                <g transform="matrix(1.27337,0,0,1.27337,0,773.393)">
                    <rect x="430" y="400" width="5" height="5" style="fill:rgb(201,122,50);fill-rule:nonzero;"/>
                </g>
                <g transform="matrix(1.27337,0,0,1.27337,0,773.393)">
                    <rect x="385" y="400" width="40" height="5" style="fill:rgb(201,122,50);fill-rule:nonzero;"/>
                </g>
                <g transform="matrix(1.27337,0,0,1.27337,0,773.393)">
                    <rect x="0" y="405" width="60.047" height="5" style="fill:rgb(216,138,61);fill-rule:nonzero;"/>
                </g>
                <g transform="matrix(1.27337,0,0,1.27337,0,773.393)">
                    <rect x="0" y="400" width="40.047" height="5" style="fill:rgb(216,138,61);fill-rule:nonzero;"/>
                </g>
                <g transform="matrix(1.27337,0,0,1.27337,0,773.393)">
                    <rect x="0" y="395" width="30.047" height="5" style="fill:rgb(216,138,61);fill-rule:nonzero;"/>
                </g>
                <g transform="matrix(1.27337,0,0,1.27337,0,773.393)">
                    <rect x="0" y="390" width="15.047" height="5" style="fill:rgb(216,138,61);fill-rule:nonzero;"/>
                </g>
                <g transform="matrix(1.27337,0,0,1.27337,0,773.393)">
                    <rect x="0" y="405" width="25.047" height="5" style="fill:rgb(201,122,50);fill-rule:nonzero;"/>
                </g>
                <g transform="matrix(1.27337,0,0,1.27337,0,773.393)">
                    <rect x="25.047" y="400" width="5" height="5" style="fill:rgb(201,122,50);fill-rule:nonzero;"/>
                </g>
                <g transform="matrix(1.27337,0,0,1.27337,0,773.393)">
                    <rect x="0.047" y="395" width="5" height="5" style="fill:rgb(201,122,50);fill-rule:nonzero;"/>
                </g>
                <g transform="matrix(1.27337,0,0,1.27337,0,773.393)">
                    <rect x="0" y="400" width="20.047" height="5" style="fill:rgb(201,122,50);fill-rule:nonzero;"/>
                </g>
                <g transform="matrix(1.27337,0,0,1.27337,0,773.393)">
                    <rect x="25.047" y="410" width="20.048" height="5" style="fill:rgb(216,138,61);fill-rule:nonzero;"/>
                </g>
                <g transform="matrix(1.27337,0,0,1.27337,0,773.393)">
                    <rect x="40.095" y="410" width="5" height="5" style="fill:rgb(201,122,50);fill-rule:nonzero;"/>
                </g>
                <g transform="matrix(1.27337,0,0,1.27337,0,773.393)">
                    <rect x="210" y="405" width="5" height="5" style="fill:rgb(201,122,50);fill-rule:nonzero;"/>
                </g>
                <g transform="matrix(1.27337,0,0,1.27337,0,773.393)">
                    <rect x="180" y="410" width="5" height="5" style="fill:rgb(201,122,50);fill-rule:nonzero;"/>
                </g>
                <g transform="matrix(1.27337,0,0,1.27337,0,773.393)">
                    <rect x="105" y="410" width="5" height="5" style="fill:rgb(201,122,50);fill-rule:nonzero;"/>
                </g>
                <g transform="matrix(1.27337,0,0,1.27337,0,773.393)">
                    <rect x="60.047" y="420" width="5" height="5" style="fill:rgb(201,122,50);fill-rule:nonzero;"/>
                </g>
                <g transform="matrix(1.27337,0,0,1.27337,0,773.393)">
                    <rect x="20.047" y="430" width="5" height="5" style="fill:rgb(201,122,50);fill-rule:nonzero;"/>
                </g>
                <g transform="matrix(1.27337,0,0,1.27337,0,773.393)">
                    <rect x="60.047" y="410" width="5" height="5" style="fill:rgb(201,122,50);fill-rule:nonzero;"/>
                </g>
                <g transform="matrix(1.27337,0,0,1.27337,0,773.393)">
                    <rect x="205" y="410" width="5" height="5" style="fill:rgb(201,122,50);fill-rule:nonzero;"/>
                </g>
                <g transform="matrix(1.27337,0,0,1.27337,0,773.393)">
                    <rect x="220" y="405" width="15" height="5" style="fill:rgb(201,122,50);fill-rule:nonzero;"/>
                </g>
                <g transform="matrix(1.27337,0,0,1.27337,0,773.393)">
                    <rect x="480.003" y="410" width="5" height="5" style="fill:rgb(216,138,61);fill-rule:nonzero;"/>
                </g>
                <g transform="matrix(1.27337,0,0,1.27337,0,773.393)">
                    <rect x="280" y="415" width="40" height="5" style="fill:rgb(201,122,50);fill-rule:nonzero;"/>
                </g>
                <g transform="matrix(1.27337,0,0,1.27337,0,773.393)">
                    <rect x="280" y="415" width="25" height="5" style="fill:rgb(216,138,61);fill-rule:nonzero;"/>
                </g>
                <g transform="matrix(1.27337,0,0,1.27337,0,773.393)">
                    <rect x="155" y="415" width="10" height="5" style="fill:rgb(216,138,61);fill-rule:nonzero;"/>
                </g>
                <g transform="matrix(1.27337,0,0,1.27337,0,773.393)">
                    <rect x="150" y="420" width="25" height="5" style="fill:rgb(201,122,50);fill-rule:nonzero;"/>
                </g>
                <g transform="matrix(1.27337,0,0,1.27337,0,773.393)">
                    <rect x="290" y="420" width="40" height="5" style="fill:rgb(201,122,50);fill-rule:nonzero;"/>
                </g>
                <g transform="matrix(1.27337,0,0,1.27337,0,773.393)">
                    <rect x="315" y="420" width="5" height="5" style="fill:rgb(216,138,61);fill-rule:nonzero;"/>
                </g>
                <g transform="matrix(1.27337,0,0,1.27337,0,773.393)">
                    <rect x="330" y="420" width="10" height="5" style="fill:rgb(216,138,61);fill-rule:nonzero;"/>
                </g>
                <g transform="matrix(1.27337,0,0,1.27337,0,773.393)">
                    <rect x="145" y="415" width="5" height="5" style="fill:rgb(201,122,50);fill-rule:nonzero;"/>
                </g>
                <g transform="matrix(1.27337,0,0,1.27337,0,773.393)">
                    <rect x="230" y="425" width="5" height="5" style="fill:rgb(201,122,50);fill-rule:nonzero;"/>
                </g>
                <g transform="matrix(1.27337,0,0,1.27337,0,773.393)">
                    <rect x="150" y="420" width="5" height="5" style="fill:rgb(216,138,61);fill-rule:nonzero;"/>
                </g>
                <g transform="matrix(1.27337,0,0,1.27337,0,773.393)">
                    <rect x="140" y="420" width="5" height="5" style="fill:rgb(216,138,61);fill-rule:nonzero;"/>
                </g>
                <g transform="matrix(1.27337,0,0,1.27337,0,773.393)">
                    <rect x="440" y="420" width="20" height="5" style="fill:rgb(201,122,50);fill-rule:nonzero;"/>
                </g>
                <g transform="matrix(1.27337,0,0,1.27337,0,773.393)">
                    <rect x="430" y="415" width="5" height="5" style="fill:rgb(201,122,50);fill-rule:nonzero;"/>
                </g>
                <g transform="matrix(1.27337,0,0,1.27337,0,773.393)">
                    <rect x="350" y="425" width="5" height="5" style="fill:rgb(201,122,50);fill-rule:nonzero;"/>
                </g>
                <g transform="matrix(1.27337,0,0,1.27337,0,773.393)">
                    <rect x="485.003" y="420" width="29.997" height="5" style="fill:rgb(216,138,61);fill-rule:nonzero;"/>
                </g>
                <g transform="matrix(1.27337,0,0,1.27337,0,773.393)">
                    <rect x="425" y="420" width="5" height="5" style="fill:rgb(216,138,61);fill-rule:nonzero;"/>
                </g>
                <g transform="matrix(1.27337,0,0,1.27337,0,773.393)">
                    <rect x="95" y="415" width="10" height="5" style="fill:rgb(216,138,61);fill-rule:nonzero;"/>
                </g>
                <g transform="matrix(1.27337,0,0,1.27337,0,773.393)">
                    <rect x="210" y="415" width="10" height="5" style="fill:rgb(216,138,61);fill-rule:nonzero;"/>
                </g>
                <g transform="matrix(1.27337,0,0,1.27337,0,773.393)">
                    <rect x="85" y="420" width="10" height="5" style="fill:rgb(216,138,61);fill-rule:nonzero;"/>
                </g>
                <g transform="matrix(1.27337,0,0,1.27337,0,773.393)">
                    <rect x="80" y="420" width="5" height="5" style="fill:rgb(201,122,50);fill-rule:nonzero;"/>
                </g>
                <g transform="matrix(1.27337,0,0,1.27337,0,773.393)">
                    <rect x="515" y="425" width="5" height="5" style="fill:rgb(216,138,61);fill-rule:nonzero;"/>
                </g>
                <g transform="matrix(1.27337,0,0,1.27337,0,773.393)">
                    <rect x="550" y="425" width="5" height="5" style="fill:rgb(216,138,61);fill-rule:nonzero;"/>
                </g>
            </g>
            <g transform="matrix(-0.605338,0,0,0.605338,984.603,202.626)">
                <g transform="matrix(1.27337,0,0,1.27337,0,773.393)">
                    <path d="M65,410L65,415L105,415L105,410L185,410L185,415L210,415L210,410L475,410L475,415L505,415L505,410L590,410L590,440L0,440L0,410L65,410Z" style="fill:rgb(234,172,104);fill-rule:nonzero;"/>
                </g>
                <g transform="matrix(1.27337,0,0,1.27337,0,773.393)">
                    <rect x="0" y="430" width="590" height="5" style="fill:rgb(221,147,72);fill-rule:nonzero;"/>
                </g>
                <g transform="matrix(1.27337,0,0,1.27337,0,773.393)">
                    <rect x="0" y="435" width="590" height="5" style="fill:rgb(216,138,61);fill-rule:nonzero;"/>
                </g>
                <g transform="matrix(1.27337,0,0,1.27337,0,773.393)">
                    <rect x="0" y="425" width="590" height="5" style="fill:rgb(225,155,82);fill-rule:nonzero;"/>
                </g>
                <g transform="matrix(1.27337,0,0,1.27337,0,773.393)">
                    <rect x="0" y="420" width="590" height="5" style="fill:rgb(229,163,93);fill-rule:nonzero;"/>
                </g>
                <g transform="matrix(1.27337,0,0,1.27337,0,773.393)">
                    <rect x="510" y="405" width="80" height="5" style="fill:rgb(216,138,61);fill-rule:nonzero;"/>
                </g>
                <g transform="matrix(1.27337,0,0,1.27337,0,773.393)">
                    <rect x="520" y="400" width="55" height="5" style="fill:rgb(216,138,61);fill-rule:nonzero;"/>
                </g>
                <g transform="matrix(1.27337,0,0,1.27337,0,773.393)">
                    <rect x="530" y="395" width="35" height="5" style="fill:rgb(216,138,61);fill-rule:nonzero;"/>
                </g>
                <g transform="matrix(1.27337,0,0,1.27337,0,773.393)">
                    <rect x="550" y="390" width="10" height="5" style="fill:rgb(216,138,61);fill-rule:nonzero;"/>
                </g>
                <g transform="matrix(1.27337,0,0,1.27337,0,773.393)">
                    <rect x="540" y="390" width="10" height="5" style="fill:rgb(216,138,61);fill-rule:nonzero;"/>
                </g>
                <g transform="matrix(1.27337,0,0,1.27337,0,773.393)">
                    <rect x="535" y="405" width="30" height="5" style="fill:rgb(201,122,50);fill-rule:nonzero;"/>
                </g>
                <g transform="matrix(1.27337,0,0,1.27337,0,773.393)">
                    <rect x="530" y="395" width="15" height="5" style="fill:rgb(229,163,93);fill-rule:nonzero;"/>
                </g>
                <g transform="matrix(1.27337,0,0,1.27337,0,773.393)">
                    <rect x="540" y="390" width="15" height="5" style="fill:rgb(229,163,93);fill-rule:nonzero;"/>
                </g>
                <g transform="matrix(1.27337,0,0,1.27337,0,773.393)">
                    <rect x="520" y="400" width="15" height="5" style="fill:rgb(229,163,93);fill-rule:nonzero;"/>
                </g>
                <g transform="matrix(1.27337,0,0,1.27337,0,773.393)">
                    <rect x="510" y="405" width="15" height="5" style="fill:rgb(229,163,93);fill-rule:nonzero;"/>
                </g>
                <g transform="matrix(1.27337,0,0,1.27337,0,773.393)">
                    <rect x="540" y="390" width="5" height="5" style="fill:rgb(234,172,104);fill-rule:nonzero;"/>
                </g>
                <g transform="matrix(1.27337,0,0,1.27337,0,773.393)">
                    <rect x="530" y="395" width="5" height="5" style="fill:rgb(234,172,104);fill-rule:nonzero;"/>
                </g>
                <g transform="matrix(1.27337,0,0,1.27337,0,773.393)">
                    <rect x="520" y="400" width="5" height="5" style="fill:rgb(234,172,104);fill-rule:nonzero;"/>
                </g>
                <g transform="matrix(1.27337,0,0,1.27337,0,773.393)">
                    <rect x="510" y="405" width="5" height="5" style="fill:rgb(234,172,104);fill-rule:nonzero;"/>
                </g>
                <g transform="matrix(1.27337,0,0,1.27337,0,773.393)">
                    <rect x="545" y="400" width="5" height="5" style="fill:rgb(201,122,50);fill-rule:nonzero;"/>
                </g>
                <g transform="matrix(1.27337,0,0,1.27337,0,773.393)">
                    <rect x="250" y="405" width="70" height="5" style="fill:rgb(216,138,61);fill-rule:nonzero;"/>
                </g>
                <g transform="matrix(1.27337,0,0,1.27337,0,773.393)">
                    <rect x="260" y="400" width="55" height="5" style="fill:rgb(216,138,61);fill-rule:nonzero;"/>
                </g>
                <g transform="matrix(1.27337,0,0,1.27337,0,773.393)">
                    <rect x="270" y="395" width="35" height="5" style="fill:rgb(216,138,61);fill-rule:nonzero;"/>
                </g>
                <g transform="matrix(1.27337,0,0,1.27337,0,773.393)">
                    <rect x="290" y="390" width="10" height="5" style="fill:rgb(216,138,61);fill-rule:nonzero;"/>
                </g>
                <g transform="matrix(1.27337,0,0,1.27337,0,773.393)">
                    <rect x="280" y="390" width="10" height="5" style="fill:rgb(216,138,61);fill-rule:nonzero;"/>
                </g>
                <g transform="matrix(1.27337,0,0,1.27337,0,773.393)">
                    <rect x="275" y="405" width="40" height="5" style="fill:rgb(201,122,50);fill-rule:nonzero;"/>
                </g>
                <g transform="matrix(1.27337,0,0,1.27337,0,773.393)">
                    <rect x="270" y="395" width="15" height="5" style="fill:rgb(229,163,93);fill-rule:nonzero;"/>
                </g>
                <g transform="matrix(1.27337,0,0,1.27337,0,773.393)">
                    <rect x="280" y="390" width="15" height="5" style="fill:rgb(229,163,93);fill-rule:nonzero;"/>
                </g>
                <g transform="matrix(1.27337,0,0,1.27337,0,773.393)">
                    <rect x="260" y="400" width="15" height="5" style="fill:rgb(229,163,93);fill-rule:nonzero;"/>
                </g>
                <g transform="matrix(1.27337,0,0,1.27337,0,773.393)">
                    <rect x="250" y="405" width="15" height="5" style="fill:rgb(229,163,93);fill-rule:nonzero;"/>
                </g>
                <g transform="matrix(1.27337,0,0,1.27337,0,773.393)">
                    <rect x="280" y="390" width="5" height="5" style="fill:rgb(234,172,104);fill-rule:nonzero;"/>
                </g>
                <g transform="matrix(1.27337,0,0,1.27337,0,773.393)">
                    <rect x="270" y="395" width="5" height="5" style="fill:rgb(234,172,104);fill-rule:nonzero;"/>
                </g>
                <g transform="matrix(1.27337,0,0,1.27337,0,773.393)">
                    <rect x="260" y="400" width="5" height="5" style="fill:rgb(234,172,104);fill-rule:nonzero;"/>
                </g>
                <g transform="matrix(1.27337,0,0,1.27337,0,773.393)">
                    <rect x="250" y="405" width="5" height="5" style="fill:rgb(234,172,104);fill-rule:nonzero;"/>
                </g>
                <g transform="matrix(1.27337,0,0,1.27337,0,773.393)">
                    <rect x="285" y="400" width="5" height="5" style="fill:rgb(201,122,50);fill-rule:nonzero;"/>
                </g>
                <g transform="matrix(1.27337,0,0,1.27337,0,773.393)">
                    <rect x="300" y="400" width="5" height="5" style="fill:rgb(201,122,50);fill-rule:nonzero;"/>
                </g>
                <g transform="matrix(1.27337,0,0,1.27337,0,773.393)">
                    <rect x="110" y="405" width="70" height="5" style="fill:rgb(216,138,61);fill-rule:nonzero;"/>
                </g>
                <g transform="matrix(1.27337,0,0,1.27337,0,773.393)">
                    <rect x="120" y="400" width="55" height="5" style="fill:rgb(216,138,61);fill-rule:nonzero;"/>
                </g>
                <g transform="matrix(1.27337,0,0,1.27337,0,773.393)">
                    <rect x="130" y="395" width="35" height="5" style="fill:rgb(216,138,61);fill-rule:nonzero;"/>
                </g>
                <g transform="matrix(1.27337,0,0,1.27337,0,773.393)">
                    <rect x="150" y="390" width="10" height="5" style="fill:rgb(216,138,61);fill-rule:nonzero;"/>
                </g>
                <g transform="matrix(1.27337,0,0,1.27337,0,773.393)">
                    <rect x="140" y="390" width="10" height="5" style="fill:rgb(216,138,61);fill-rule:nonzero;"/>
                </g>
                <g transform="matrix(1.27337,0,0,1.27337,0,773.393)">
                    <rect x="135" y="405" width="40" height="5" style="fill:rgb(201,122,50);fill-rule:nonzero;"/>
                </g>
                <g transform="matrix(1.27337,0,0,1.27337,0,773.393)">
                    <rect x="130" y="395" width="15" height="5" style="fill:rgb(229,163,93);fill-rule:nonzero;"/>
                </g>
                <g transform="matrix(1.27337,0,0,1.27337,0,773.393)">
                    <rect x="140" y="390" width="15" height="5" style="fill:rgb(229,163,93);fill-rule:nonzero;"/>
                </g>
                <g transform="matrix(1.27337,0,0,1.27337,0,773.393)">
                    <rect x="120" y="400" width="15" height="5" style="fill:rgb(229,163,93);fill-rule:nonzero;"/>
                </g>
                <g transform="matrix(1.27337,0,0,1.27337,0,773.393)">
                    <rect x="110" y="405" width="15" height="5" style="fill:rgb(229,163,93);fill-rule:nonzero;"/>
                </g>
                <g transform="matrix(1.27337,0,0,1.27337,0,773.393)">
                    <rect x="140" y="390" width="5" height="5" style="fill:rgb(234,172,104);fill-rule:nonzero;"/>
                </g>
                <g transform="matrix(1.27337,0,0,1.27337,0,773.393)">
                    <rect x="130" y="395" width="5" height="5" style="fill:rgb(234,172,104);fill-rule:nonzero;"/>
                </g>
                <g transform="matrix(1.27337,0,0,1.27337,0,773.393)">
                    <rect x="120" y="400" width="5" height="5" style="fill:rgb(234,172,104);fill-rule:nonzero;"/>
                </g>
                <g transform="matrix(1.27337,0,0,1.27337,0,773.393)">
                    <rect x="110" y="405" width="5" height="5" style="fill:rgb(234,172,104);fill-rule:nonzero;"/>
                </g>
                <g transform="matrix(1.27337,0,0,1.27337,0,773.393)">
                    <rect x="145" y="400" width="5" height="5" style="fill:rgb(201,122,50);fill-rule:nonzero;"/>
                </g>
                <g transform="matrix(1.27337,0,0,1.27337,0,773.393)">
                    <rect x="160" y="400" width="5" height="5" style="fill:rgb(201,122,50);fill-rule:nonzero;"/>
                </g>
                <g transform="matrix(1.27337,0,0,1.27337,0,773.393)">
                    <rect x="385" y="405" width="80" height="5" style="fill:rgb(216,138,61);fill-rule:nonzero;"/>
                </g>
                <g transform="matrix(1.27337,0,0,1.27337,0,773.393)">
                    <rect x="345" y="400" width="100" height="5" style="fill:rgb(216,138,61);fill-rule:nonzero;"/>
                </g>
                <g transform="matrix(1.27337,0,0,1.27337,0,773.393)">
                    <rect x="385" y="395" width="50" height="5" style="fill:rgb(216,138,61);fill-rule:nonzero;"/>
                </g>
                <g transform="matrix(1.27337,0,0,1.27337,0,773.393)">
                    <rect x="330" y="405" width="80" height="5" style="fill:rgb(216,138,61);fill-rule:nonzero;"/>
                </g>
                <g transform="matrix(1.27337,0,0,1.27337,0,773.393)">
                    <rect x="365" y="390" width="55" height="5" style="fill:rgb(216,138,61);fill-rule:nonzero;"/>
                </g>
                <g transform="matrix(1.27337,0,0,1.27337,0,773.393)">
                    <rect x="350" y="395" width="35" height="5" style="fill:rgb(216,138,61);fill-rule:nonzero;"/>
                </g>
                <g transform="matrix(1.27337,0,0,1.27337,0,773.393)">
                    <rect x="370" y="395" width="15" height="5" style="fill:rgb(201,122,50);fill-rule:nonzero;"/>
                </g>
                <g transform="matrix(1.27337,0,0,1.27337,0,773.393)">
                    <rect x="370" y="390" width="10" height="5" style="fill:rgb(216,138,61);fill-rule:nonzero;"/>
                </g>
                <g transform="matrix(1.27337,0,0,1.27337,0,773.393)">
                    <rect x="360" y="390" width="10" height="5" style="fill:rgb(216,138,61);fill-rule:nonzero;"/>
                </g>
                <g transform="matrix(1.27337,0,0,1.27337,0,773.393)">
                    <rect x="355" y="405" width="75" height="5" style="fill:rgb(201,122,50);fill-rule:nonzero;"/>
                </g>
                <g transform="matrix(1.27337,0,0,1.27337,0,773.393)">
                    <rect x="350" y="395" width="15" height="5" style="fill:rgb(229,163,93);fill-rule:nonzero;"/>
                </g>
                <g transform="matrix(1.27337,0,0,1.27337,0,773.393)">
                    <rect x="360" y="390" width="40" height="5" style="fill:rgb(229,163,93);fill-rule:nonzero;"/>
                </g>
                <g transform="matrix(1.27337,0,0,1.27337,0,773.393)">
                    <rect x="340" y="400" width="15" height="5" style="fill:rgb(229,163,93);fill-rule:nonzero;"/>
                </g>
                <g transform="matrix(1.27337,0,0,1.27337,0,773.393)">
                    <rect x="330" y="405" width="15" height="5" style="fill:rgb(229,163,93);fill-rule:nonzero;"/>
                </g>
                <g transform="matrix(1.27337,0,0,1.27337,0,773.393)">
                    <rect x="360" y="390" width="5" height="5" style="fill:rgb(234,172,104);fill-rule:nonzero;"/>
                </g>
                <g transform="matrix(1.27337,0,0,1.27337,0,773.393)">
                    <rect x="350" y="395" width="5" height="5" style="fill:rgb(234,172,104);fill-rule:nonzero;"/>
                </g>
                <g transform="matrix(1.27337,0,0,1.27337,0,773.393)">
                    <rect x="340" y="400" width="5" height="5" style="fill:rgb(234,172,104);fill-rule:nonzero;"/>
                </g>
                <g transform="matrix(1.27337,0,0,1.27337,0,773.393)">
                    <rect x="330" y="405" width="5" height="5" style="fill:rgb(234,172,104);fill-rule:nonzero;"/>
                </g>
                <g transform="matrix(1.27337,0,0,1.27337,0,773.393)">
                    <rect x="365" y="400" width="5" height="5" style="fill:rgb(201,122,50);fill-rule:nonzero;"/>
                </g>
                <g transform="matrix(1.27337,0,0,1.27337,0,773.393)">
                    <rect x="430" y="400" width="5" height="5" style="fill:rgb(201,122,50);fill-rule:nonzero;"/>
                </g>
                <g transform="matrix(1.27337,0,0,1.27337,0,773.393)">
                    <rect x="385" y="400" width="40" height="5" style="fill:rgb(201,122,50);fill-rule:nonzero;"/>
                </g>
                <g transform="matrix(1.27337,0,0,1.27337,0,773.393)">
                    <rect x="0" y="405" width="60.047" height="5" style="fill:rgb(216,138,61);fill-rule:nonzero;"/>
                </g>
                <g transform="matrix(1.27337,0,0,1.27337,0,773.393)">
                    <rect x="0" y="400" width="40.047" height="5" style="fill:rgb(216,138,61);fill-rule:nonzero;"/>
                </g>
                <g transform="matrix(1.27337,0,0,1.27337,0,773.393)">
                    <rect x="0" y="395" width="30.047" height="5" style="fill:rgb(216,138,61);fill-rule:nonzero;"/>
                </g>
                <g transform="matrix(1.27337,0,0,1.27337,0,773.393)">
                    <rect x="0" y="390" width="15.047" height="5" style="fill:rgb(216,138,61);fill-rule:nonzero;"/>
                </g>
                <g transform="matrix(1.27337,0,0,1.27337,0,773.393)">
                    <rect x="0" y="405" width="25.047" height="5" style="fill:rgb(201,122,50);fill-rule:nonzero;"/>
                </g>
                <g transform="matrix(1.27337,0,0,1.27337,0,773.393)">
                    <rect x="25.047" y="400" width="5" height="5" style="fill:rgb(201,122,50);fill-rule:nonzero;"/>
                </g>
                <g transform="matrix(1.27337,0,0,1.27337,0,773.393)">
                    <rect x="0.047" y="395" width="5" height="5" style="fill:rgb(201,122,50);fill-rule:nonzero;"/>
                </g>
                <g transform="matrix(1.27337,0,0,1.27337,0,773.393)">
                    <rect x="0" y="400" width="20.047" height="5" style="fill:rgb(201,122,50);fill-rule:nonzero;"/>
                </g>
                <g transform="matrix(1.27337,0,0,1.27337,0,773.393)">
                    <rect x="25.047" y="410" width="20.048" height="5" style="fill:rgb(216,138,61);fill-rule:nonzero;"/>
                </g>
                <g transform="matrix(1.27337,0,0,1.27337,0,773.393)">
                    <rect x="40.095" y="410" width="5" height="5" style="fill:rgb(201,122,50);fill-rule:nonzero;"/>
                </g>
                <g transform="matrix(1.27337,0,0,1.27337,0,773.393)">
                    <rect x="210" y="405" width="5" height="5" style="fill:rgb(201,122,50);fill-rule:nonzero;"/>
                </g>
                <g transform="matrix(1.27337,0,0,1.27337,0,773.393)">
                    <rect x="180" y="410" width="5" height="5" style="fill:rgb(201,122,50);fill-rule:nonzero;"/>
                </g>
                <g transform="matrix(1.27337,0,0,1.27337,0,773.393)">
                    <rect x="105" y="410" width="5" height="5" style="fill:rgb(201,122,50);fill-rule:nonzero;"/>
                </g>
                <g transform="matrix(1.27337,0,0,1.27337,0,773.393)">
                    <rect x="60.047" y="420" width="5" height="5" style="fill:rgb(201,122,50);fill-rule:nonzero;"/>
                </g>
                <g transform="matrix(1.27337,0,0,1.27337,0,773.393)">
                    <rect x="20.047" y="430" width="5" height="5" style="fill:rgb(201,122,50);fill-rule:nonzero;"/>
                </g>
                <g transform="matrix(1.27337,0,0,1.27337,0,773.393)">
                    <rect x="60.047" y="410" width="5" height="5" style="fill:rgb(201,122,50);fill-rule:nonzero;"/>
                </g>
                <g transform="matrix(1.27337,0,0,1.27337,0,773.393)">
                    <rect x="205" y="410" width="5" height="5" style="fill:rgb(201,122,50);fill-rule:nonzero;"/>
                </g>
                <g transform="matrix(1.27337,0,0,1.27337,0,773.393)">
                    <rect x="220" y="405" width="15" height="5" style="fill:rgb(201,122,50);fill-rule:nonzero;"/>
                </g>
                <g transform="matrix(1.27337,0,0,1.27337,0,773.393)">
                    <rect x="480.003" y="410" width="5" height="5" style="fill:rgb(216,138,61);fill-rule:nonzero;"/>
                </g>
                <g transform="matrix(1.27337,0,0,1.27337,0,773.393)">
                    <rect x="280" y="415" width="40" height="5" style="fill:rgb(201,122,50);fill-rule:nonzero;"/>
                </g>
                <g transform="matrix(1.27337,0,0,1.27337,0,773.393)">
                    <rect x="280" y="415" width="25" height="5" style="fill:rgb(216,138,61);fill-rule:nonzero;"/>
                </g>
                <g transform="matrix(1.27337,0,0,1.27337,0,773.393)">
                    <rect x="155" y="415" width="10" height="5" style="fill:rgb(216,138,61);fill-rule:nonzero;"/>
                </g>
                <g transform="matrix(1.27337,0,0,1.27337,0,773.393)">
                    <rect x="150" y="420" width="25" height="5" style="fill:rgb(201,122,50);fill-rule:nonzero;"/>
                </g>
                <g transform="matrix(1.27337,0,0,1.27337,0,773.393)">
                    <rect x="290" y="420" width="40" height="5" style="fill:rgb(201,122,50);fill-rule:nonzero;"/>
                </g>
                <g transform="matrix(1.27337,0,0,1.27337,0,773.393)">
                    <rect x="315" y="420" width="5" height="5" style="fill:rgb(216,138,61);fill-rule:nonzero;"/>
                </g>
                <g transform="matrix(1.27337,0,0,1.27337,0,773.393)">
                    <rect x="330" y="420" width="10" height="5" style="fill:rgb(216,138,61);fill-rule:nonzero;"/>
                </g>
                <g transform="matrix(1.27337,0,0,1.27337,0,773.393)">
                    <rect x="145" y="415" width="5" height="5" style="fill:rgb(201,122,50);fill-rule:nonzero;"/>
                </g>
                <g transform="matrix(1.27337,0,0,1.27337,0,773.393)">
                    <rect x="230" y="425" width="5" height="5" style="fill:rgb(201,122,50);fill-rule:nonzero;"/>
                </g>
                <g transform="matrix(1.27337,0,0,1.27337,0,773.393)">
                    <rect x="150" y="420" width="5" height="5" style="fill:rgb(216,138,61);fill-rule:nonzero;"/>
                </g>
                <g transform="matrix(1.27337,0,0,1.27337,0,773.393)">
                    <rect x="140" y="420" width="5" height="5" style="fill:rgb(216,138,61);fill-rule:nonzero;"/>
                </g>
                <g transform="matrix(1.27337,0,0,1.27337,0,773.393)">
                    <rect x="440" y="420" width="20" height="5" style="fill:rgb(201,122,50);fill-rule:nonzero;"/>
                </g>
                <g transform="matrix(1.27337,0,0,1.27337,0,773.393)">
                    <rect x="430" y="415" width="5" height="5" style="fill:rgb(201,122,50);fill-rule:nonzero;"/>
                </g>
                <g transform="matrix(1.27337,0,0,1.27337,0,773.393)">
                    <rect x="350" y="425" width="5" height="5" style="fill:rgb(201,122,50);fill-rule:nonzero;"/>
                </g>
                <g transform="matrix(1.27337,0,0,1.27337,0,773.393)">
                    <rect x="485.003" y="420" width="29.997" height="5" style="fill:rgb(216,138,61);fill-rule:nonzero;"/>
                </g>
                <g transform="matrix(1.27337,0,0,1.27337,0,773.393)">
                    <rect x="425" y="420" width="5" height="5" style="fill:rgb(216,138,61);fill-rule:nonzero;"/>
                </g>
                <g transform="matrix(1.27337,0,0,1.27337,0,773.393)">
                    <rect x="95" y="415" width="10" height="5" style="fill:rgb(216,138,61);fill-rule:nonzero;"/>
                </g>
                <g transform="matrix(1.27337,0,0,1.27337,0,773.393)">
                    <rect x="210" y="415" width="10" height="5" style="fill:rgb(216,138,61);fill-rule:nonzero;"/>
                </g>
                <g transform="matrix(1.27337,0,0,1.27337,0,773.393)">
                    <rect x="85" y="420" width="10" height="5" style="fill:rgb(216,138,61);fill-rule:nonzero;"/>
                </g>
                <g transform="matrix(1.27337,0,0,1.27337,0,773.393)">
                    <rect x="80" y="420" width="5" height="5" style="fill:rgb(201,122,50);fill-rule:nonzero;"/>
                </g>
                <g transform="matrix(1.27337,0,0,1.27337,0,773.393)">
                    <rect x="515" y="425" width="5" height="5" style="fill:rgb(216,138,61);fill-rule:nonzero;"/>
                </g>
                <g transform="matrix(1.27337,0,0,1.27337,0,773.393)">
                    <rect x="550" y="425" width="5" height="5" style="fill:rgb(216,138,61);fill-rule:nonzero;"/>
                </g>
            </g>
        </g>
    </g>
</svg>
