<?xml version="1.0" encoding="UTF-8" standalone="no"?>
<!DOCTYPE svg PUBLIC "-//W3C//DTD SVG 1.1//EN" "http://www.w3.org/Graphics/SVG/1.1/DTD/svg11.dtd">
<svg width="100%" height="100%" viewBox="0 0 750 1334" version="1.1" xmlns="http://www.w3.org/2000/svg" xmlns:xlink="http://www.w3.org/1999/xlink" xml:space="preserve" xmlns:serif="http://www.serif.com/" style="fill-rule:evenodd;clip-rule:evenodd;stroke-linejoin:round;stroke-miterlimit:2;">
    <g transform="matrix(1.27205,0,0,0.745898,-0.600632,1006.02)">
        <rect x="0" y="0" width="590" height="440" style="fill:rgb(45,5,51);fill-rule:nonzero;"/>
    </g>
    <g transform="matrix(1.27205,0,0,0.745898,-0.600632,682.223)">
        <rect x="0" y="0" width="590" height="440" style="fill:rgb(40,2,46);fill-rule:nonzero;"/>
    </g>
    <g transform="matrix(1.27205,0,0,0.771835,-0.600632,347.238)">
        <rect x="0" y="0" width="590" height="440" style="fill:rgb(33,9,37);fill-rule:nonzero;"/>
    </g>
    <g transform="matrix(1.27205,0,0,0.810051,-0.600632,-5.79236)">
        <rect x="0" y="0" width="590" height="440" style="fill:rgb(31,0,35);fill-rule:nonzero;"/>
    </g>
    <g transform="matrix(0.793071,0,0,0.776342,144.273,128.435)">
        <g transform="matrix(4.80603,0,0,4.80603,270.217,-319.7)">
            <path d="M32.605,98.889L32.605,93.889L37.605,93.889L37.605,88.889L42.605,88.889L42.605,83.889L72.605,83.889L72.605,88.889L77.605,88.889L77.605,93.889L82.605,93.889L82.605,98.889L87.605,98.889L87.605,128.889L82.605,128.889L82.605,133.889L77.605,133.889L77.605,138.889L72.605,138.889L72.605,143.889L42.605,143.889L42.605,138.889L37.605,138.889L37.605,133.889L32.605,133.889L32.605,128.889L27.605,128.889L27.605,98.889L32.605,98.889Z" style="fill:rgb(88,20,104);fill-rule:nonzero;"/>
        </g>
        <g transform="matrix(4.80603,0,0,4.80603,270.217,-319.7)">
            <rect x="37.605" y="103.889" width="5" height="5" style="fill:rgb(99,26,117);fill-rule:nonzero;"/>
        </g>
        <g transform="matrix(4.80603,0,0,4.80603,270.217,-319.7)">
            <rect x="47.605" y="113.889" width="5" height="5" style="fill:rgb(71,10,86);fill-rule:nonzero;"/>
        </g>
        <g transform="matrix(4.80603,0,0,4.80603,270.217,-319.7)">
            <rect x="62.605" y="108.889" width="5" height="5" style="fill:rgb(99,26,117);fill-rule:nonzero;"/>
        </g>
        <g transform="matrix(4.80603,0,0,4.80603,270.217,-319.7)">
            <rect x="57.605" y="128.889" width="10" height="5" style="fill:rgb(71,10,86);fill-rule:nonzero;"/>
        </g>
        <g transform="matrix(4.80603,0,0,4.80603,270.217,-319.7)">
            <rect x="62.605" y="123.889" width="5" height="10" style="fill:rgb(71,10,86);fill-rule:nonzero;"/>
        </g>
        <g transform="matrix(4.80603,0,0,4.80603,270.217,-319.7)">
            <rect x="62.605" y="133.889" width="5" height="5" style="fill:rgb(99,26,117);fill-rule:nonzero;"/>
        </g>
        <g transform="matrix(4.80603,0,0,4.80603,270.217,-319.7)">
            <rect x="37.605" y="123.889" width="5" height="5" style="fill:rgb(99,26,117);fill-rule:nonzero;"/>
        </g>
        <g transform="matrix(4.80603,0,0,4.80603,270.217,-319.7)">
            <rect x="37.605" y="133.889" width="10" height="5" style="fill:rgb(71,10,86);fill-rule:nonzero;"/>
        </g>
        <g transform="matrix(4.80603,0,0,4.80603,270.217,-319.7)">
            <rect x="52.605" y="88.889" width="5" height="5" style="fill:rgb(99,26,117);fill-rule:nonzero;"/>
        </g>
        <g transform="matrix(4.80603,0,0,4.80603,270.217,-319.7)">
            <rect x="27.605" y="98.889" width="5" height="15" style="fill:rgb(99,26,117);fill-rule:nonzero;"/>
        </g>
        <g transform="matrix(4.80603,0,0,4.80603,270.217,-319.7)">
            <rect x="32.605" y="93.889" width="5" height="5" style="fill:rgb(99,26,117);fill-rule:nonzero;"/>
        </g>
        <g transform="matrix(4.80603,0,0,4.80603,270.217,-319.7)">
            <rect x="57.605" y="113.889" width="5" height="5" style="fill:rgb(99,26,117);fill-rule:nonzero;"/>
        </g>
        <g transform="matrix(4.80603,0,0,4.80603,270.217,-319.7)">
            <rect x="67.605" y="103.889" width="5" height="5" style="fill:rgb(71,10,86);fill-rule:nonzero;"/>
        </g>
        <g transform="matrix(4.80603,0,0,4.80603,270.217,-319.7)">
            <rect x="72.605" y="88.889" width="5" height="5" style="fill:rgb(99,26,117);fill-rule:nonzero;"/>
        </g>
        <g transform="matrix(4.80603,0,0,4.80603,270.217,-319.7)">
            <rect x="42.605" y="83.889" width="30" height="5" style="fill:rgb(99,26,117);fill-rule:nonzero;"/>
        </g>
        <g transform="matrix(4.80603,0,0,4.80603,270.217,-319.7)">
            <rect x="47.605" y="93.889" width="5" height="5" style="fill:rgb(99,26,117);fill-rule:nonzero;"/>
        </g>
        <g transform="matrix(4.80603,0,0,4.80603,270.217,-319.7)">
            <rect x="72.605" y="113.889" width="5" height="5" style="fill:rgb(71,10,86);fill-rule:nonzero;"/>
        </g>
        <g transform="matrix(4.80603,0,0,4.80603,270.217,-319.7)">
            <rect x="72.605" y="98.889" width="5" height="5" style="fill:rgb(99,26,117);fill-rule:nonzero;"/>
        </g>
        <g transform="matrix(4.80603,0,0,4.80603,270.217,-319.7)">
            <rect x="77.903" y="93.889" width="5" height="5" style="fill:rgb(99,26,117);fill-rule:nonzero;"/>
        </g>
        <g transform="matrix(4.80603,0,0,4.80603,270.217,-319.7)">
            <rect x="52.605" y="118.889" width="5" height="10" style="fill:rgb(71,10,86);fill-rule:nonzero;"/>
        </g>
        <g transform="matrix(4.80603,0,0,4.80603,270.217,-319.7)">
            <rect x="52.605" y="83.889" width="10" height="5" style="fill:rgb(88,20,104);fill-rule:nonzero;"/>
        </g>
        <g transform="matrix(4.80603,0,0,4.80603,270.217,-319.7)">
            <rect x="37.605" y="88.889" width="5" height="5" style="fill:rgb(99,26,117);fill-rule:nonzero;"/>
        </g>
        <g transform="matrix(4.80603,0,0,4.80603,270.217,-319.7)">
            <rect x="47.605" y="98.889" width="5" height="5" style="fill:rgb(71,10,86);fill-rule:nonzero;"/>
        </g>
        <g transform="matrix(4.80603,0,0,4.80603,270.217,-319.7)">
            <rect x="57.605" y="98.889" width="5" height="5" style="fill:rgb(71,10,86);fill-rule:nonzero;"/>
        </g>
        <g transform="matrix(4.80603,0,0,4.80603,270.217,-319.7)">
            <rect x="42.605" y="98.889" width="5" height="10" style="fill:rgb(99,26,117);fill-rule:nonzero;"/>
        </g>
        <g transform="matrix(4.80603,0,0,4.80603,270.217,-319.7)">
            <rect x="37.605" y="108.889" width="5" height="5" style="fill:rgb(71,10,86);fill-rule:nonzero;"/>
        </g>
        <g transform="matrix(4.80603,0,0,4.80603,270.217,-319.7)">
            <rect x="32.605" y="128.889" width="5" height="5" style="fill:rgb(71,10,86);fill-rule:nonzero;"/>
        </g>
        <g transform="matrix(4.80603,0,0,4.80603,270.217,-319.7)">
            <rect x="27.605" y="123.889" width="5" height="5" style="fill:rgb(71,10,86);fill-rule:nonzero;"/>
        </g>
        <g transform="matrix(4.80603,0,0,4.80603,270.217,-319.7)">
            <rect x="67.605" y="118.889" width="5" height="5" style="fill:rgb(99,26,117);fill-rule:nonzero;"/>
        </g>
        <g transform="matrix(4.80603,0,0,4.80603,270.217,-319.7)">
            <rect x="72.605" y="108.889" width="5" height="5" style="fill:rgb(99,26,117);fill-rule:nonzero;"/>
        </g>
        <g transform="matrix(4.80603,0,0,4.80603,270.217,-319.7)">
            <rect x="47.605" y="108.889" width="5" height="5" style="fill:rgb(99,26,117);fill-rule:nonzero;"/>
        </g>
        <g transform="matrix(4.80603,0,0,4.80603,270.217,-319.7)">
            <rect x="82.605" y="103.889" width="5" height="25" style="fill:rgb(71,10,86);fill-rule:nonzero;"/>
        </g>
        <g transform="matrix(4.80603,0,0,4.80603,270.217,-319.7)">
            <rect x="42.605" y="123.889" width="5" height="5" style="fill:rgb(71,10,86);fill-rule:nonzero;"/>
        </g>
        <g transform="matrix(4.80603,0,0,4.80603,270.217,-319.7)">
            <rect x="72.605" y="128.889" width="10" height="5" style="fill:rgb(71,10,86);fill-rule:nonzero;"/>
        </g>
        <g transform="matrix(4.80603,0,0,4.80603,270.217,-319.7)">
            <rect x="77.605" y="123.889" width="10" height="5" style="fill:rgb(71,10,86);fill-rule:nonzero;"/>
        </g>
        <g transform="matrix(4.80603,0,0,4.80603,270.217,-319.7)">
            <rect x="72.605" y="118.889" width="5" height="5" style="fill:rgb(71,10,86);fill-rule:nonzero;"/>
        </g>
        <g transform="matrix(4.80603,0,0,4.80603,270.217,-319.7)">
            <rect x="67.605" y="133.889" width="10" height="5" style="fill:rgb(71,10,86);fill-rule:nonzero;"/>
        </g>
        <g transform="matrix(4.80603,0,0,4.80603,270.217,-319.7)">
            <rect x="42.605" y="138.889" width="30" height="5" style="fill:rgb(71,10,86);fill-rule:nonzero;"/>
        </g>
    </g>
    <g transform="matrix(0.571058,0,0,0.528741,-319.728,645.353)">
        <g transform="matrix(4.80603,0,0,4.80603,270.217,-319.7)">
            <path d="M32.605,98.889L32.605,93.889L37.605,93.889L37.605,88.889L42.605,88.889L42.605,83.889L72.605,83.889L72.605,88.889L77.605,88.889L77.605,93.889L82.605,93.889L82.605,98.889L87.605,98.889L87.605,128.889L82.605,128.889L82.605,133.889L77.605,133.889L77.605,138.889L72.605,138.889L72.605,143.889L42.605,143.889L42.605,138.889L37.605,138.889L37.605,133.889L32.605,133.889L32.605,128.889L27.605,128.889L27.605,98.889L32.605,98.889Z" style="fill:rgb(88,20,104);fill-rule:nonzero;"/>
        </g>
        <g transform="matrix(4.80603,0,0,4.80603,270.217,-319.7)">
            <rect x="62.605" y="108.889" width="5" height="5" style="fill:rgb(99,26,117);fill-rule:nonzero;"/>
        </g>
        <g transform="matrix(4.80603,0,0,4.80603,270.217,-319.7)">
            <rect x="57.605" y="128.889" width="10" height="5" style="fill:rgb(71,10,86);fill-rule:nonzero;"/>
        </g>
        <g transform="matrix(4.80603,0,0,4.80603,270.217,-319.7)">
            <rect x="62.605" y="123.889" width="5" height="10" style="fill:rgb(71,10,86);fill-rule:nonzero;"/>
        </g>
        <g transform="matrix(4.80603,0,0,4.80603,270.217,-319.7)">
            <rect x="62.605" y="133.889" width="5" height="5" style="fill:rgb(99,26,117);fill-rule:nonzero;"/>
        </g>
        <g transform="matrix(4.80603,0,0,4.80603,270.217,-319.7)">
            <rect x="57.605" y="113.889" width="5" height="5" style="fill:rgb(99,26,117);fill-rule:nonzero;"/>
        </g>
        <g transform="matrix(4.80603,0,0,4.80603,270.217,-319.7)">
            <rect x="67.605" y="103.889" width="5" height="5" style="fill:rgb(71,10,86);fill-rule:nonzero;"/>
        </g>
        <g transform="matrix(4.80603,0,0,4.80603,270.217,-319.7)">
            <rect x="72.605" y="88.889" width="5" height="5" style="fill:rgb(99,26,117);fill-rule:nonzero;"/>
        </g>
        <g transform="matrix(4.80603,0,0,4.80603,270.217,-319.7)">
            <rect x="42.605" y="83.889" width="30" height="5" style="fill:rgb(99,26,117);fill-rule:nonzero;"/>
        </g>
        <g transform="matrix(4.80603,0,0,4.80603,270.217,-319.7)">
            <rect x="72.605" y="113.889" width="5" height="5" style="fill:rgb(71,10,86);fill-rule:nonzero;"/>
        </g>
        <g transform="matrix(4.80603,0,0,4.80603,270.217,-319.7)">
            <rect x="72.605" y="98.889" width="5" height="5" style="fill:rgb(99,26,117);fill-rule:nonzero;"/>
        </g>
        <g transform="matrix(4.80603,0,0,4.80603,270.217,-319.7)">
            <rect x="77.903" y="93.889" width="5" height="5" style="fill:rgb(99,26,117);fill-rule:nonzero;"/>
        </g>
        <g transform="matrix(4.80603,0,0,4.80603,270.217,-319.7)">
            <rect x="52.605" y="83.889" width="10" height="5" style="fill:rgb(88,20,104);fill-rule:nonzero;"/>
        </g>
        <g transform="matrix(4.80603,0,0,4.80603,270.217,-319.7)">
            <rect x="57.605" y="98.889" width="5" height="5" style="fill:rgb(71,10,86);fill-rule:nonzero;"/>
        </g>
        <g transform="matrix(4.80603,0,0,4.80603,270.217,-319.7)">
            <rect x="67.605" y="118.889" width="5" height="5" style="fill:rgb(99,26,117);fill-rule:nonzero;"/>
        </g>
        <g transform="matrix(4.80603,0,0,4.80603,270.217,-319.7)">
            <rect x="72.605" y="108.889" width="5" height="5" style="fill:rgb(99,26,117);fill-rule:nonzero;"/>
        </g>
        <g transform="matrix(4.80603,0,0,4.80603,270.217,-319.7)">
            <rect x="82.605" y="103.889" width="5" height="25" style="fill:rgb(71,10,86);fill-rule:nonzero;"/>
        </g>
        <g transform="matrix(4.80603,0,0,4.80603,270.217,-319.7)">
            <rect x="72.605" y="128.889" width="10" height="5" style="fill:rgb(71,10,86);fill-rule:nonzero;"/>
        </g>
        <g transform="matrix(4.80603,0,0,4.80603,270.217,-319.7)">
            <rect x="77.605" y="123.889" width="10" height="5" style="fill:rgb(71,10,86);fill-rule:nonzero;"/>
        </g>
        <g transform="matrix(4.80603,0,0,4.80603,270.217,-319.7)">
            <rect x="72.605" y="118.889" width="5" height="5" style="fill:rgb(71,10,86);fill-rule:nonzero;"/>
        </g>
        <g transform="matrix(4.80603,0,0,4.80603,270.217,-319.7)">
            <rect x="67.605" y="133.889" width="10" height="5" style="fill:rgb(71,10,86);fill-rule:nonzero;"/>
        </g>
        <g transform="matrix(4.80603,0,0,4.80603,270.217,-319.7)">
            <rect x="42.605" y="138.889" width="30" height="5" style="fill:rgb(71,10,86);fill-rule:nonzero;"/>
        </g>
    </g>
    <g>
        <g transform="matrix(1.59289,0,0,1.59289,-31.1299,644.768)">
            <rect x="423.154" y="304.105" width="10" height="10" style="fill:white;fill-rule:nonzero;"/>
        </g>
        <g transform="matrix(1.59289,0,0,1.59289,-31.1299,644.768)">
            <rect x="423.154" y="299.105" width="10" height="5" style="fill:rgb(118,39,137);fill-rule:nonzero;"/>
        </g>
        <g transform="matrix(1.59289,0,0,1.59289,-31.1299,644.768)">
            <rect x="423.154" y="294.105" width="10" height="5" style="fill:rgb(88,20,104);fill-rule:nonzero;"/>
        </g>
        <g transform="matrix(1.59289,0,0,1.59289,-31.1299,644.768)">
            <rect x="423.154" y="289.105" width="10" height="5" style="fill:rgb(71,10,86);fill-rule:nonzero;"/>
        </g>
        <g transform="matrix(1.59289,0,0,1.59289,-31.1299,644.768)">
            <rect x="433.154" y="304.105" width="5" height="10" style="fill:rgb(118,39,137);fill-rule:nonzero;"/>
        </g>
        <g transform="matrix(1.59289,0,0,1.59289,-31.1299,644.768)">
            <rect x="438.154" y="304.105" width="5" height="10" style="fill:rgb(88,20,104);fill-rule:nonzero;"/>
        </g>
        <g transform="matrix(1.59289,0,0,1.59289,-31.1299,644.768)">
            <rect x="443.154" y="304.105" width="5" height="10" style="fill:rgb(71,10,86);fill-rule:nonzero;"/>
        </g>
        <g transform="matrix(1.59289,0,0,1.59289,-31.1299,644.768)">
            <rect x="408.154" y="304.105" width="5" height="10" style="fill:rgb(71,10,86);fill-rule:nonzero;"/>
        </g>
        <g transform="matrix(1.59289,0,0,1.59289,-31.1299,644.768)">
            <rect x="418.154" y="304.105" width="5" height="10" style="fill:rgb(118,39,137);fill-rule:nonzero;"/>
        </g>
        <g transform="matrix(1.59289,0,0,1.59289,-31.1299,644.768)">
            <rect x="413.154" y="304.105" width="5" height="10" style="fill:rgb(88,20,104);fill-rule:nonzero;"/>
        </g>
        <g transform="matrix(1.59289,0,0,1.59289,-31.1299,644.768)">
            <rect x="423.154" y="314.105" width="10" height="5" style="fill:rgb(118,39,137);fill-rule:nonzero;"/>
        </g>
        <g transform="matrix(1.59289,0,0,1.59289,-31.1299,644.768)">
            <rect x="423.154" y="319.105" width="10" height="5" style="fill:rgb(88,20,104);fill-rule:nonzero;"/>
        </g>
        <g transform="matrix(1.59289,0,0,1.59289,-31.1299,644.768)">
            <rect x="423.154" y="324.105" width="10" height="5" style="fill:rgb(71,10,86);fill-rule:nonzero;"/>
        </g>
        <g transform="matrix(1.59289,0,0,1.59289,-31.1299,644.768)">
            <rect x="433.154" y="299.105" width="5" height="5" style="fill:rgb(88,20,104);fill-rule:nonzero;"/>
        </g>
        <g transform="matrix(1.59289,0,0,1.59289,-31.1299,644.768)">
            <rect x="413.154" y="299.105" width="5" height="5" style="fill:rgb(71,10,86);fill-rule:nonzero;"/>
        </g>
        <g transform="matrix(1.59289,0,0,1.59289,-31.1299,644.768)">
            <rect x="413.154" y="314.105" width="5" height="5" style="fill:rgb(71,10,86);fill-rule:nonzero;"/>
        </g>
        <g transform="matrix(1.59289,0,0,1.59289,-31.1299,644.768)">
            <rect x="433.154" y="294.105" width="5" height="5" style="fill:rgb(71,10,86);fill-rule:nonzero;"/>
        </g>
        <g transform="matrix(1.59289,0,0,1.59289,-31.1299,644.768)">
            <rect x="418.154" y="294.105" width="5" height="5" style="fill:rgb(71,10,86);fill-rule:nonzero;"/>
        </g>
        <g transform="matrix(1.59289,0,0,1.59289,-31.1299,644.768)">
            <rect x="418.154" y="319.105" width="5" height="5" style="fill:rgb(71,10,86);fill-rule:nonzero;"/>
        </g>
        <g transform="matrix(1.59289,0,0,1.59289,-31.1299,644.768)">
            <rect x="433.154" y="319.105" width="5" height="5" style="fill:rgb(71,10,86);fill-rule:nonzero;"/>
        </g>
        <g transform="matrix(1.59289,0,0,1.59289,-31.1299,644.768)">
            <rect x="438.154" y="299.105" width="5" height="5" style="fill:rgb(71,10,86);fill-rule:nonzero;"/>
        </g>
        <g transform="matrix(1.59289,0,0,1.59289,-31.1299,644.768)">
            <rect x="438.154" y="314.105" width="5" height="5" style="fill:rgb(71,10,86);fill-rule:nonzero;"/>
        </g>
        <g transform="matrix(1.59289,0,0,1.59289,-31.1299,644.768)">
            <rect x="418.154" y="299.105" width="5" height="5" style="fill:rgb(88,20,104);fill-rule:nonzero;"/>
        </g>
        <g transform="matrix(1.59289,0,0,1.59289,-31.1299,644.768)">
            <rect x="433.154" y="314.105" width="5" height="5" style="fill:rgb(88,20,104);fill-rule:nonzero;"/>
        </g>
        <g transform="matrix(1.59289,0,0,1.59289,-31.1299,644.768)">
            <rect x="418.154" y="314.105" width="5" height="5" style="fill:rgb(88,20,104);fill-rule:nonzero;"/>
        </g>
    </g>
    <g transform="matrix(1,0,0,1,-538.741,-776.714)">
        <g transform="matrix(1.59289,0,0,1.59289,-31.1299,644.768)">
            <rect x="423.154" y="304.105" width="10" height="10" style="fill:white;fill-rule:nonzero;"/>
        </g>
        <g transform="matrix(1.59289,0,0,1.59289,-31.1299,644.768)">
            <rect x="423.154" y="299.105" width="10" height="5" style="fill:rgb(118,39,137);fill-rule:nonzero;"/>
        </g>
        <g transform="matrix(1.59289,0,0,1.59289,-31.1299,644.768)">
            <rect x="423.154" y="294.105" width="10" height="5" style="fill:rgb(88,20,104);fill-rule:nonzero;"/>
        </g>
        <g transform="matrix(1.59289,0,0,1.59289,-31.1299,644.768)">
            <rect x="423.154" y="289.105" width="10" height="5" style="fill:rgb(71,10,86);fill-rule:nonzero;"/>
        </g>
        <g transform="matrix(1.59289,0,0,1.59289,-31.1299,644.768)">
            <rect x="433.154" y="304.105" width="5" height="10" style="fill:rgb(118,39,137);fill-rule:nonzero;"/>
        </g>
        <g transform="matrix(1.59289,0,0,1.59289,-31.1299,644.768)">
            <rect x="438.154" y="304.105" width="5" height="10" style="fill:rgb(88,20,104);fill-rule:nonzero;"/>
        </g>
        <g transform="matrix(1.59289,0,0,1.59289,-31.1299,644.768)">
            <rect x="443.154" y="304.105" width="5" height="10" style="fill:rgb(71,10,86);fill-rule:nonzero;"/>
        </g>
        <g transform="matrix(1.59289,0,0,1.59289,-31.1299,644.768)">
            <rect x="408.154" y="304.105" width="5" height="10" style="fill:rgb(71,10,86);fill-rule:nonzero;"/>
        </g>
        <g transform="matrix(1.59289,0,0,1.59289,-31.1299,644.768)">
            <rect x="418.154" y="304.105" width="5" height="10" style="fill:rgb(118,39,137);fill-rule:nonzero;"/>
        </g>
        <g transform="matrix(1.59289,0,0,1.59289,-31.1299,644.768)">
            <rect x="413.154" y="304.105" width="5" height="10" style="fill:rgb(88,20,104);fill-rule:nonzero;"/>
        </g>
        <g transform="matrix(1.59289,0,0,1.59289,-31.1299,644.768)">
            <rect x="423.154" y="314.105" width="10" height="5" style="fill:rgb(118,39,137);fill-rule:nonzero;"/>
        </g>
        <g transform="matrix(1.59289,0,0,1.59289,-31.1299,644.768)">
            <rect x="423.154" y="319.105" width="10" height="5" style="fill:rgb(88,20,104);fill-rule:nonzero;"/>
        </g>
        <g transform="matrix(1.59289,0,0,1.59289,-31.1299,644.768)">
            <rect x="423.154" y="324.105" width="10" height="5" style="fill:rgb(71,10,86);fill-rule:nonzero;"/>
        </g>
        <g transform="matrix(1.59289,0,0,1.59289,-31.1299,644.768)">
            <rect x="433.154" y="299.105" width="5" height="5" style="fill:rgb(88,20,104);fill-rule:nonzero;"/>
        </g>
        <g transform="matrix(1.59289,0,0,1.59289,-31.1299,644.768)">
            <rect x="413.154" y="299.105" width="5" height="5" style="fill:rgb(71,10,86);fill-rule:nonzero;"/>
        </g>
        <g transform="matrix(1.59289,0,0,1.59289,-31.1299,644.768)">
            <rect x="413.154" y="314.105" width="5" height="5" style="fill:rgb(71,10,86);fill-rule:nonzero;"/>
        </g>
        <g transform="matrix(1.59289,0,0,1.59289,-31.1299,644.768)">
            <rect x="433.154" y="294.105" width="5" height="5" style="fill:rgb(71,10,86);fill-rule:nonzero;"/>
        </g>
        <g transform="matrix(1.59289,0,0,1.59289,-31.1299,644.768)">
            <rect x="418.154" y="294.105" width="5" height="5" style="fill:rgb(71,10,86);fill-rule:nonzero;"/>
        </g>
        <g transform="matrix(1.59289,0,0,1.59289,-31.1299,644.768)">
            <rect x="418.154" y="319.105" width="5" height="5" style="fill:rgb(71,10,86);fill-rule:nonzero;"/>
        </g>
        <g transform="matrix(1.59289,0,0,1.59289,-31.1299,644.768)">
            <rect x="433.154" y="319.105" width="5" height="5" style="fill:rgb(71,10,86);fill-rule:nonzero;"/>
        </g>
        <g transform="matrix(1.59289,0,0,1.59289,-31.1299,644.768)">
            <rect x="438.154" y="299.105" width="5" height="5" style="fill:rgb(71,10,86);fill-rule:nonzero;"/>
        </g>
        <g transform="matrix(1.59289,0,0,1.59289,-31.1299,644.768)">
            <rect x="438.154" y="314.105" width="5" height="5" style="fill:rgb(71,10,86);fill-rule:nonzero;"/>
        </g>
        <g transform="matrix(1.59289,0,0,1.59289,-31.1299,644.768)">
            <rect x="418.154" y="299.105" width="5" height="5" style="fill:rgb(88,20,104);fill-rule:nonzero;"/>
        </g>
        <g transform="matrix(1.59289,0,0,1.59289,-31.1299,644.768)">
            <rect x="433.154" y="314.105" width="5" height="5" style="fill:rgb(88,20,104);fill-rule:nonzero;"/>
        </g>
        <g transform="matrix(1.59289,0,0,1.59289,-31.1299,644.768)">
            <rect x="418.154" y="314.105" width="5" height="5" style="fill:rgb(88,20,104);fill-rule:nonzero;"/>
        </g>
    </g>
    <g transform="matrix(1,0,0,1,-141.513,-466.072)">
        <g transform="matrix(1.59289,0,0,1.59289,-31.1299,644.768)">
            <rect x="423.154" y="304.105" width="10" height="10" style="fill:white;fill-rule:nonzero;"/>
        </g>
        <g transform="matrix(1.59289,0,0,1.59289,-31.1299,644.768)">
            <rect x="423.154" y="299.105" width="10" height="5" style="fill:rgb(118,39,137);fill-rule:nonzero;"/>
        </g>
        <g transform="matrix(1.59289,0,0,1.59289,-31.1299,644.768)">
            <rect x="423.154" y="294.105" width="10" height="5" style="fill:rgb(88,20,104);fill-rule:nonzero;"/>
        </g>
        <g transform="matrix(1.59289,0,0,1.59289,-31.1299,644.768)">
            <rect x="423.154" y="289.105" width="10" height="5" style="fill:rgb(71,10,86);fill-rule:nonzero;"/>
        </g>
        <g transform="matrix(1.59289,0,0,1.59289,-31.1299,644.768)">
            <rect x="433.154" y="304.105" width="5" height="10" style="fill:rgb(118,39,137);fill-rule:nonzero;"/>
        </g>
        <g transform="matrix(1.59289,0,0,1.59289,-31.1299,644.768)">
            <rect x="438.154" y="304.105" width="5" height="10" style="fill:rgb(88,20,104);fill-rule:nonzero;"/>
        </g>
        <g transform="matrix(1.59289,0,0,1.59289,-31.1299,644.768)">
            <rect x="443.154" y="304.105" width="5" height="10" style="fill:rgb(71,10,86);fill-rule:nonzero;"/>
        </g>
        <g transform="matrix(1.59289,0,0,1.59289,-31.1299,644.768)">
            <rect x="408.154" y="304.105" width="5" height="10" style="fill:rgb(71,10,86);fill-rule:nonzero;"/>
        </g>
        <g transform="matrix(1.59289,0,0,1.59289,-31.1299,644.768)">
            <rect x="418.154" y="304.105" width="5" height="10" style="fill:rgb(118,39,137);fill-rule:nonzero;"/>
        </g>
        <g transform="matrix(1.59289,0,0,1.59289,-31.1299,644.768)">
            <rect x="413.154" y="304.105" width="5" height="10" style="fill:rgb(88,20,104);fill-rule:nonzero;"/>
        </g>
        <g transform="matrix(1.59289,0,0,1.59289,-31.1299,644.768)">
            <rect x="423.154" y="314.105" width="10" height="5" style="fill:rgb(118,39,137);fill-rule:nonzero;"/>
        </g>
        <g transform="matrix(1.59289,0,0,1.59289,-31.1299,644.768)">
            <rect x="423.154" y="319.105" width="10" height="5" style="fill:rgb(88,20,104);fill-rule:nonzero;"/>
        </g>
        <g transform="matrix(1.59289,0,0,1.59289,-31.1299,644.768)">
            <rect x="423.154" y="324.105" width="10" height="5" style="fill:rgb(71,10,86);fill-rule:nonzero;"/>
        </g>
        <g transform="matrix(1.59289,0,0,1.59289,-31.1299,644.768)">
            <rect x="433.154" y="299.105" width="5" height="5" style="fill:rgb(88,20,104);fill-rule:nonzero;"/>
        </g>
        <g transform="matrix(1.59289,0,0,1.59289,-31.1299,644.768)">
            <rect x="413.154" y="299.105" width="5" height="5" style="fill:rgb(71,10,86);fill-rule:nonzero;"/>
        </g>
        <g transform="matrix(1.59289,0,0,1.59289,-31.1299,644.768)">
            <rect x="413.154" y="314.105" width="5" height="5" style="fill:rgb(71,10,86);fill-rule:nonzero;"/>
        </g>
        <g transform="matrix(1.59289,0,0,1.59289,-31.1299,644.768)">
            <rect x="433.154" y="294.105" width="5" height="5" style="fill:rgb(71,10,86);fill-rule:nonzero;"/>
        </g>
        <g transform="matrix(1.59289,0,0,1.59289,-31.1299,644.768)">
            <rect x="418.154" y="294.105" width="5" height="5" style="fill:rgb(71,10,86);fill-rule:nonzero;"/>
        </g>
        <g transform="matrix(1.59289,0,0,1.59289,-31.1299,644.768)">
            <rect x="418.154" y="319.105" width="5" height="5" style="fill:rgb(71,10,86);fill-rule:nonzero;"/>
        </g>
        <g transform="matrix(1.59289,0,0,1.59289,-31.1299,644.768)">
            <rect x="433.154" y="319.105" width="5" height="5" style="fill:rgb(71,10,86);fill-rule:nonzero;"/>
        </g>
        <g transform="matrix(1.59289,0,0,1.59289,-31.1299,644.768)">
            <rect x="438.154" y="299.105" width="5" height="5" style="fill:rgb(71,10,86);fill-rule:nonzero;"/>
        </g>
        <g transform="matrix(1.59289,0,0,1.59289,-31.1299,644.768)">
            <rect x="438.154" y="314.105" width="5" height="5" style="fill:rgb(71,10,86);fill-rule:nonzero;"/>
        </g>
        <g transform="matrix(1.59289,0,0,1.59289,-31.1299,644.768)">
            <rect x="418.154" y="299.105" width="5" height="5" style="fill:rgb(88,20,104);fill-rule:nonzero;"/>
        </g>
        <g transform="matrix(1.59289,0,0,1.59289,-31.1299,644.768)">
            <rect x="433.154" y="314.105" width="5" height="5" style="fill:rgb(88,20,104);fill-rule:nonzero;"/>
        </g>
        <g transform="matrix(1.59289,0,0,1.59289,-31.1299,644.768)">
            <rect x="418.154" y="314.105" width="5" height="5" style="fill:rgb(88,20,104);fill-rule:nonzero;"/>
        </g>
    </g>
    <g transform="matrix(1,0,0,1,-640.099,-83.0612)">
        <g transform="matrix(1.59289,0,0,1.59289,-31.1299,644.768)">
            <rect x="423.154" y="304.105" width="10" height="10" style="fill:white;fill-rule:nonzero;"/>
        </g>
        <g transform="matrix(1.59289,0,0,1.59289,-31.1299,644.768)">
            <rect x="423.154" y="299.105" width="10" height="5" style="fill:rgb(118,39,137);fill-rule:nonzero;"/>
        </g>
        <g transform="matrix(1.59289,0,0,1.59289,-31.1299,644.768)">
            <rect x="423.154" y="294.105" width="10" height="5" style="fill:rgb(88,20,104);fill-rule:nonzero;"/>
        </g>
        <g transform="matrix(1.59289,0,0,1.59289,-31.1299,644.768)">
            <rect x="423.154" y="289.105" width="10" height="5" style="fill:rgb(71,10,86);fill-rule:nonzero;"/>
        </g>
        <g transform="matrix(1.59289,0,0,1.59289,-31.1299,644.768)">
            <rect x="433.154" y="304.105" width="5" height="10" style="fill:rgb(118,39,137);fill-rule:nonzero;"/>
        </g>
        <g transform="matrix(1.59289,0,0,1.59289,-31.1299,644.768)">
            <rect x="438.154" y="304.105" width="5" height="10" style="fill:rgb(88,20,104);fill-rule:nonzero;"/>
        </g>
        <g transform="matrix(1.59289,0,0,1.59289,-31.1299,644.768)">
            <rect x="443.154" y="304.105" width="5" height="10" style="fill:rgb(71,10,86);fill-rule:nonzero;"/>
        </g>
        <g transform="matrix(1.59289,0,0,1.59289,-31.1299,644.768)">
            <rect x="418.154" y="304.105" width="5" height="10" style="fill:rgb(118,39,137);fill-rule:nonzero;"/>
        </g>
        <g transform="matrix(1.59289,0,0,1.59289,-31.1299,644.768)">
            <rect x="423.154" y="314.105" width="10" height="5" style="fill:rgb(118,39,137);fill-rule:nonzero;"/>
        </g>
        <g transform="matrix(1.59289,0,0,1.59289,-31.1299,644.768)">
            <rect x="423.154" y="319.105" width="10" height="5" style="fill:rgb(88,20,104);fill-rule:nonzero;"/>
        </g>
        <g transform="matrix(1.59289,0,0,1.59289,-31.1299,644.768)">
            <rect x="423.154" y="324.105" width="10" height="5" style="fill:rgb(71,10,86);fill-rule:nonzero;"/>
        </g>
        <g transform="matrix(1.59289,0,0,1.59289,-31.1299,644.768)">
            <rect x="433.154" y="299.105" width="5" height="5" style="fill:rgb(88,20,104);fill-rule:nonzero;"/>
        </g>
        <g transform="matrix(1.59289,0,0,1.59289,-31.1299,644.768)">
            <rect x="433.154" y="294.105" width="5" height="5" style="fill:rgb(71,10,86);fill-rule:nonzero;"/>
        </g>
        <g transform="matrix(1.59289,0,0,1.59289,-31.1299,644.768)">
            <rect x="418.154" y="294.105" width="5" height="5" style="fill:rgb(71,10,86);fill-rule:nonzero;"/>
        </g>
        <g transform="matrix(1.59289,0,0,1.59289,-31.1299,644.768)">
            <rect x="418.154" y="319.105" width="5" height="5" style="fill:rgb(71,10,86);fill-rule:nonzero;"/>
        </g>
        <g transform="matrix(1.59289,0,0,1.59289,-31.1299,644.768)">
            <rect x="433.154" y="319.105" width="5" height="5" style="fill:rgb(71,10,86);fill-rule:nonzero;"/>
        </g>
        <g transform="matrix(1.59289,0,0,1.59289,-31.1299,644.768)">
            <rect x="438.154" y="299.105" width="5" height="5" style="fill:rgb(71,10,86);fill-rule:nonzero;"/>
        </g>
        <g transform="matrix(1.59289,0,0,1.59289,-31.1299,644.768)">
            <rect x="438.154" y="314.105" width="5" height="5" style="fill:rgb(71,10,86);fill-rule:nonzero;"/>
        </g>
        <g transform="matrix(1.59289,0,0,1.59289,-31.1299,644.768)">
            <rect x="418.154" y="299.105" width="5" height="5" style="fill:rgb(88,20,104);fill-rule:nonzero;"/>
        </g>
        <g transform="matrix(1.59289,0,0,1.59289,-31.1299,644.768)">
            <rect x="433.154" y="314.105" width="5" height="5" style="fill:rgb(88,20,104);fill-rule:nonzero;"/>
        </g>
        <g transform="matrix(1.59289,0,0,1.59289,-31.1299,644.768)">
            <rect x="418.154" y="314.105" width="5" height="5" style="fill:rgb(88,20,104);fill-rule:nonzero;"/>
        </g>
    </g>
</svg>
