<?xml version="1.0" encoding="UTF-8" standalone="no"?>
<!DOCTYPE svg PUBLIC "-//W3C//DTD SVG 1.1//EN" "http://www.w3.org/Graphics/SVG/1.1/DTD/svg11.dtd">
<svg width="100%" height="100%" viewBox="0 0 22 29" version="1.1" xmlns="http://www.w3.org/2000/svg" xmlns:xlink="http://www.w3.org/1999/xlink" xml:space="preserve" xmlns:serif="http://www.serif.com/" style="fill-rule:evenodd;clip-rule:evenodd;stroke-linejoin:round;stroke-miterlimit:2;">
    <g transform="matrix(1,0,0,1,-269.957,-17.984)">
        <rect x="276.973" y="35.525" width="3.508" height="3.508" style="fill:rgb(255,155,37);fill-rule:nonzero;"/>
        <rect x="276.973" y="25" width="3.508" height="3.508" style="fill:rgb(255,155,37);fill-rule:nonzero;"/>
        <rect x="276.973" y="28.508" width="7.017" height="7.017" style="fill:rgb(255,188,39);fill-rule:nonzero;"/>
        <rect x="283.99" y="35.525" width="3.508" height="3.508" style="fill:rgb(255,155,37);fill-rule:nonzero;"/>
        <rect x="283.99" y="25" width="3.508" height="3.508" style="fill:rgb(255,155,37);fill-rule:nonzero;"/>
        <rect x="287.498" y="25" width="3.508" height="14.033" style="fill:rgb(255,155,37);fill-rule:nonzero;"/>
        <rect x="280.481" y="42.541" width="3.509" height="3.509" style="fill:rgb(255,155,37);fill-rule:nonzero;"/>
        <rect x="280.481" y="17.984" width="3.509" height="3.508" style="fill:rgb(255,155,37);fill-rule:nonzero;"/>
        <rect x="276.973" y="39.033" width="10.525" height="3.508" style="fill:rgb(255,155,37);fill-rule:nonzero;"/>
        <rect x="276.973" y="21.492" width="10.525" height="3.508" style="fill:rgb(255,155,37);fill-rule:nonzero;"/>
        <rect x="273.465" y="35.525" width="3.508" height="3.508" style="fill:rgb(255,209,18);fill-rule:nonzero;"/>
        <rect x="273.465" y="25" width="3.508" height="3.508" style="fill:rgb(255,209,18);fill-rule:nonzero;"/>
        <rect x="280.481" y="35.525" width="3.509" height="3.508" style="fill:rgb(255,209,18);fill-rule:nonzero;"/>
        <rect x="280.481" y="25" width="3.509" height="3.508" style="fill:rgb(255,209,18);fill-rule:nonzero;"/>
        <rect x="269.957" y="25" width="3.508" height="14.033" style="fill:rgb(255,209,18);fill-rule:nonzero;"/>
        <rect x="283.99" y="25" width="3.508" height="14.033" style="fill:rgb(255,209,18);fill-rule:nonzero;"/>
        <rect x="276.973" y="42.541" width="3.508" height="3.509" style="fill:rgb(255,209,18);fill-rule:nonzero;"/>
        <rect x="276.973" y="17.984" width="3.508" height="3.508" style="fill:rgb(255,209,18);fill-rule:nonzero;"/>
        <rect x="273.465" y="39.033" width="10.525" height="3.508" style="fill:rgb(255,209,18);fill-rule:nonzero;"/>
        <rect x="273.465" y="21.492" width="10.525" height="3.508" style="fill:rgb(255,209,18);fill-rule:nonzero;"/>
        <rect x="280.481" y="32.017" width="3.509" height="3.508" style="fill:rgb(255,155,37);fill-rule:nonzero;"/>
        <rect x="280.481" y="28.509" width="3.509" height="3.508" style="fill:rgb(255,155,37);fill-rule:nonzero;"/>
        <rect x="273.465" y="28.508" width="3.508" height="7.03" style="fill:rgb(255,155,37);fill-rule:nonzero;"/>
    </g>
</svg>
