<?xml version="1.0" encoding="UTF-8" standalone="no"?>
<!DOCTYPE svg PUBLIC "-//W3C//DTD SVG 1.1//EN" "http://www.w3.org/Graphics/SVG/1.1/DTD/svg11.dtd">
<svg width="100%" height="100%" viewBox="0 0 32 29" version="1.1" xmlns="http://www.w3.org/2000/svg" xmlns:xlink="http://www.w3.org/1999/xlink" xml:space="preserve" xmlns:serif="http://www.serif.com/" style="fill-rule:evenodd;clip-rule:evenodd;stroke-linejoin:round;stroke-miterlimit:2;">
    <g transform="matrix(1,0,0,1,-470.21,-17.984)">
        <rect x="470.21" y="25" width="3.509" height="7.017" style="fill:rgb(255,36,36);fill-rule:nonzero;"/>
        <rect x="498.276" y="25" width="3.509" height="7.017" style="fill:rgb(255,36,36);fill-rule:nonzero;"/>
        <rect x="484.243" y="42.541" width="3.508" height="3.509" style="fill:rgb(255,36,36);fill-rule:nonzero;"/>
        <rect x="473.719" y="21.492" width="10.524" height="3.508" style="fill:rgb(255,36,36);fill-rule:nonzero;"/>
        <rect x="487.751" y="21.492" width="10.525" height="3.508" style="fill:rgb(255,36,36);fill-rule:nonzero;"/>
        <rect x="491.26" y="17.984" width="3.508" height="3.508" style="fill:rgb(255,36,36);fill-rule:nonzero;"/>
        <rect x="480.735" y="39.033" width="10.525" height="3.508" style="fill:rgb(255,36,36);fill-rule:nonzero;"/>
        <rect x="477.227" y="17.984" width="3.508" height="3.508" style="fill:rgb(255,36,36);fill-rule:nonzero;"/>
        <rect x="484.243" y="32.017" width="14.033" height="3.508" style="fill:rgb(255,36,36);fill-rule:nonzero;"/>
        <rect x="473.719" y="28.508" width="24.557" height="3.509" style="fill:rgb(255,36,36);fill-rule:nonzero;"/>
        <rect x="473.719" y="32.017" width="14.032" height="3.508" style="fill:rgb(255,36,36);fill-rule:nonzero;"/>
        <rect x="473.719" y="25" width="24.557" height="3.508" style="fill:rgb(255,36,36);fill-rule:nonzero;"/>
        <rect x="477.227" y="35.525" width="17.541" height="3.508" style="fill:rgb(255,36,36);fill-rule:nonzero;"/>
    </g>
</svg>
