<?xml version="1.0" encoding="UTF-8" standalone="no"?>
<!DOCTYPE svg PUBLIC "-//W3C//DTD SVG 1.1//EN" "http://www.w3.org/Graphics/SVG/1.1/DTD/svg11.dtd">
<svg width="100%" height="100%" viewBox="0 0 301 411" version="1.1" xmlns="http://www.w3.org/2000/svg" xmlns:xlink="http://www.w3.org/1999/xlink" xml:space="preserve" xmlns:serif="http://www.serif.com/" style="fill-rule:evenodd;clip-rule:evenodd;stroke-linejoin:round;stroke-miterlimit:2;">
    <g transform="matrix(1,0,0,1,-95.1031,-39.3124)">
        <g transform="matrix(5.52758,0,0,5.52758,-2647.65,-1082.45)">
            <rect x="505.141" y="243.686" width="33.225" height="14.381" style="fill:rgb(255,155,37);fill-rule:nonzero;"/>
        </g>
        <g transform="matrix(5.52758,0,0,5.52758,-2647.65,-1082.45)">
            <rect x="521.754" y="226.908" width="23.967" height="23.968" style="fill:rgb(255,209,18);fill-rule:nonzero;"/>
        </g>
        <g transform="matrix(5.52758,0,0,5.52758,-2647.65,-1082.45)">
            <rect x="540.928" y="212.528" width="9.587" height="9.587" style="fill:rgb(255,209,18);fill-rule:nonzero;"/>
        </g>
        <g transform="matrix(5.52758,0,0,5.52758,-2647.65,-1082.45)">
            <rect x="540.928" y="217.321" width="4.793" height="4.794" style="fill:white;fill-rule:nonzero;"/>
        </g>
        <g transform="matrix(5.52758,0,0,5.52758,-2647.65,-1082.45)">
            <rect x="531.341" y="202.94" width="9.587" height="9.588" style="fill:rgb(255,209,18);fill-rule:nonzero;"/>
        </g>
        <g transform="matrix(5.52758,0,0,5.52758,-2647.65,-1082.45)">
            <rect x="531.341" y="207.734" width="4.793" height="4.794" style="fill:white;fill-rule:nonzero;"/>
        </g>
        <g transform="matrix(5.52758,0,0,5.52758,-2647.65,-1082.45)">
            <rect x="516.96" y="212.528" width="9.587" height="9.587" style="fill:rgb(255,209,18);fill-rule:nonzero;"/>
        </g>
        <g transform="matrix(5.52758,0,0,5.52758,-2647.65,-1082.45)">
            <rect x="500.988" y="253.273" width="9.588" height="9.587" style="fill:rgb(255,209,18);fill-rule:nonzero;"/>
        </g>
        <g transform="matrix(5.52758,0,0,5.52758,-2647.65,-1082.45)">
            <rect x="516.96" y="217.321" width="4.794" height="4.794" style="fill:white;fill-rule:nonzero;"/>
        </g>
        <g transform="matrix(5.52758,0,0,5.52758,-2647.65,-1082.45)">
            <rect x="500.988" y="262.86" width="4.794" height="4.793" style="fill:rgb(255,209,18);fill-rule:nonzero;"/>
        </g>
        <g transform="matrix(5.52758,0,0,5.52758,-2647.65,-1082.45)">
            <rect x="510.576" y="267.653" width="4.793" height="4.794" style="fill:rgb(255,209,18);fill-rule:nonzero;"/>
        </g>
        <g transform="matrix(5.52758,0,0,5.52758,-2647.65,-1082.45)">
            <rect x="512.167" y="234.099" width="4.793" height="9.587" style="fill:rgb(255,209,18);fill-rule:nonzero;"/>
        </g>
        <g transform="matrix(5.52758,0,0,5.52758,-2647.65,-1082.45)">
            <rect x="543.159" y="262.86" width="4.794" height="9.587" style="fill:rgb(255,209,18);fill-rule:nonzero;"/>
        </g>
        <g transform="matrix(5.52758,0,0,5.52758,-2647.65,-1082.45)">
            <rect x="507.373" y="229.305" width="4.794" height="4.794" style="fill:rgb(255,209,18);fill-rule:nonzero;"/>
        </g>
        <g transform="matrix(5.52758,0,0,5.52758,-2647.65,-1082.45)">
            <rect x="538.366" y="258.067" width="4.793" height="4.793" style="fill:rgb(255,209,18);fill-rule:nonzero;"/>
        </g>
        <g transform="matrix(5.52758,0,0,5.52758,-2647.65,-1082.45)">
            <rect x="528.779" y="262.86" width="4.793" height="9.587" style="fill:rgb(255,209,18);fill-rule:nonzero;"/>
        </g>
        <g transform="matrix(5.52758,0,0,5.52758,-2647.65,-1082.45)">
            <rect x="523.985" y="258.067" width="4.794" height="4.793" style="fill:rgb(255,209,18);fill-rule:nonzero;"/>
        </g>
        <g transform="matrix(5.52758,0,0,5.52758,-2647.65,-1082.45)">
            <rect x="502.579" y="229.305" width="4.794" height="4.794" style="fill:rgb(255,209,18);fill-rule:nonzero;"/>
        </g>
        <g transform="matrix(5.52758,0,0,5.52758,-2647.65,-1082.45)">
            <rect x="507.373" y="234.099" width="4.794" height="4.793" style="fill:rgb(255,209,18);fill-rule:nonzero;"/>
        </g>
        <g transform="matrix(5.52758,0,0,5.52758,-2647.65,-1082.45)">
            <rect x="496.195" y="267.653" width="4.793" height="4.794" style="fill:rgb(255,209,18);fill-rule:nonzero;"/>
        </g>
        <g transform="matrix(5.52758,0,0,5.52758,-2647.65,-1082.45)">
            <rect x="500.988" y="272.447" width="9.588" height="4.794" style="fill:rgb(255,209,18);fill-rule:nonzero;"/>
        </g>
        <g transform="matrix(5.52758,0,0,5.52758,-2647.65,-1082.45)">
            <rect x="496.195" y="262.86" width="4.793" height="4.793" style="fill:rgb(255,209,18);fill-rule:nonzero;"/>
        </g>
        <g transform="matrix(5.52758,0,0,5.52758,-2647.65,-1082.45)">
            <rect x="531.341" y="212.528" width="4.793" height="14.38" style="fill:rgb(255,155,37);fill-rule:nonzero;"/>
        </g>
        <g transform="matrix(5.52758,0,0,5.52758,-2647.65,-1082.45)">
            <rect x="540.928" y="222.115" width="4.793" height="14.38" style="fill:rgb(255,155,37);fill-rule:nonzero;"/>
        </g>
        <g transform="matrix(5.52758,0,0,5.52758,-2647.65,-1082.45)">
            <rect x="521.754" y="222.115" width="4.793" height="14.38" style="fill:rgb(255,155,37);fill-rule:nonzero;"/>
        </g>
        <g transform="matrix(5.52758,0,0,5.52758,-2647.65,-1082.45)">
            <rect x="526.547" y="241.289" width="4.794" height="9.587" style="fill:rgb(45,5,51);fill-rule:nonzero;"/>
        </g>
    </g>
</svg>
